<?xml version="1.0" encoding="us-ascii" standalone="no"?><svg xmlns="http://www.w3.org/2000/svg" xmlns:xlink="http://www.w3.org/1999/xlink" contentStyleType="text/css" height="438px" preserveAspectRatio="none" style="width:366px;height:438px;background:#FFFFFF;" version="1.1" viewBox="0 0 366 438" width="366px" zoomAndPan="magnify"><defs/><g><!--class FileSystemItem--><g id="elem_FileSystemItem"><rect codeLine="4" fill="#F1F1F1" height="83.2188" id="FileSystemItem" rx="2.5" ry="2.5" style="stroke:#181818;stroke-width:0.5;" width="128" x="92.5" y="151.5"/><ellipse cx="107.5" cy="167.5" fill="#B4A7E5" rx="11" ry="11" style="stroke:#181818;stroke-width:1.0;"/><path d="M108.4531,164.1406 L108.4531,170.7969 L110.1719,170.7969 Q110.7813,170.7969 111.0469,171.0313 Q111.3125,171.2656 111.3125,171.6563 Q111.3125,172.0313 111.0469,172.2656 Q110.7813,172.5 110.1719,172.5 L105.0313,172.5 Q104.4219,172.5 104.1563,172.2656 Q103.8906,172.0313 103.8906,171.6406 Q103.8906,171.2656 104.1563,171.0313 Q104.4219,170.7969 105.0313,170.7969 L106.75,170.7969 L106.75,164.1406 L105.0313,164.1406 Q104.4219,164.1406 104.1563,163.9063 Q103.8906,163.6719 103.8906,163.2813 Q103.8906,162.9063 104.1563,162.6719 Q104.4219,162.4375 105.0313,162.4375 L110.1719,162.4375 Q110.7813,162.4375 111.0469,162.6719 Q111.3125,162.9063 111.3125,163.2813 Q111.3125,163.6719 111.0469,163.9063 Q110.7813,164.1406 110.1719,164.1406 L108.4531,164.1406 Z " fill="#000000"/><text fill="#000000" font-family="sans-serif" font-size="14" font-style="italic" lengthAdjust="spacing" textLength="96" x="121.5" y="173.2285">FileSystemItem</text><line style="stroke:#181818;stroke-width:0.5;" x1="93.5" x2="219.5" y1="183.5" y2="183.5"/><line style="stroke:#181818;stroke-width:0.5;" x1="93.5" x2="219.5" y1="191.5" y2="191.5"/><text fill="#000000" font-family="sans-serif" font-size="14" lengthAdjust="spacing" textLength="91" x="98.5" y="210.0332">+getSize() : int</text><text fill="#000000" font-family="sans-serif" font-size="14" lengthAdjust="spacing" textLength="93" x="98.5" y="227.6426">+showDetails()</text></g><!--class Leaf--><g id="elem_Leaf"><rect codeLine="10" fill="#F1F1F1" height="118.4375" id="Leaf" rx="2.5" ry="2.5" style="stroke:#181818;stroke-width:0.5;" width="105" x="7" y="304.5"/><ellipse cx="42.25" cy="320.5" fill="#ADD1B2" rx="11" ry="11" style="stroke:#181818;stroke-width:1.0;"/><path d="M45.0156,316.375 Q45.1719,316.1563 45.3594,316.0469 Q45.5469,315.9375 45.7656,315.9375 Q46.1406,315.9375 46.375,316.2031 Q46.6094,316.4531 46.6094,317.0625 L46.6094,318.5156 Q46.6094,319.125 46.375,319.3906 Q46.1406,319.6563 45.7656,319.6563 Q45.4219,319.6563 45.2188,319.4531 Q45.0156,319.2656 44.9063,318.75 Q44.8594,318.3906 44.6719,318.2031 Q44.3438,317.8281 43.7344,317.6094 Q43.125,317.3906 42.5,317.3906 Q41.7344,317.3906 41.0938,317.7188 Q40.4688,318.0469 39.9688,318.7969 Q39.4844,319.5469 39.4844,320.5781 L39.4844,321.6719 Q39.4844,322.9063 40.375,323.7344 Q41.2656,324.5469 42.8594,324.5469 Q43.7969,324.5469 44.4531,324.2969 Q44.8438,324.1406 45.2656,323.7031 Q45.5313,323.4375 45.6719,323.3594 Q45.8281,323.2813 46.0313,323.2813 Q46.3594,323.2813 46.6094,323.5469 Q46.875,323.7969 46.875,324.1406 Q46.875,324.4844 46.5313,324.8906 Q46.0313,325.4688 45.2344,325.7969 Q44.1563,326.25 42.8594,326.25 Q41.3438,326.25 40.1406,325.625 Q39.1563,325.125 38.4688,324.0625 Q37.7813,322.9844 37.7813,321.7031 L37.7813,320.5469 Q37.7813,319.2188 38.3906,318.0781 Q39.0156,316.9219 40.1094,316.3125 Q41.2031,315.6875 42.4375,315.6875 Q43.1719,315.6875 43.8125,315.8594 Q44.4688,316.0156 45.0156,316.375 Z " fill="#000000"/><text fill="#000000" font-family="sans-serif" font-size="14" lengthAdjust="spacing" textLength="28" x="60.75" y="326.2285">Leaf</text><line style="stroke:#181818;stroke-width:0.5;" x1="8" x2="111" y1="336.5" y2="336.5"/><text fill="#000000" font-family="sans-serif" font-size="14" lengthAdjust="spacing" textLength="89" x="13" y="355.0332">-name : String</text><text fill="#000000" font-family="sans-serif" font-size="14" lengthAdjust="spacing" textLength="56" x="13" y="372.6426">-size : int</text><line style="stroke:#181818;stroke-width:0.5;" x1="8" x2="111" y1="379.7188" y2="379.7188"/><text fill="#000000" font-family="sans-serif" font-size="14" lengthAdjust="spacing" textLength="91" x="13" y="398.252">+getSize() : int</text><text fill="#000000" font-family="sans-serif" font-size="14" lengthAdjust="spacing" textLength="93" x="13" y="415.8613">+showDetails()</text></g><!--class Composite--><g id="elem_Composite"><rect codeLine="18" fill="#F1F1F1" height="136.0469" id="Composite" rx="2.5" ry="2.5" style="stroke:#181818;stroke-width:0.5;" width="212" x="147.5" y="295.5"/><ellipse cx="215.75" cy="311.5" fill="#ADD1B2" rx="11" ry="11" style="stroke:#181818;stroke-width:1.0;"/><path d="M218.5156,307.375 Q218.6719,307.1563 218.8594,307.0469 Q219.0469,306.9375 219.2656,306.9375 Q219.6406,306.9375 219.875,307.2031 Q220.1094,307.4531 220.1094,308.0625 L220.1094,309.5156 Q220.1094,310.125 219.875,310.3906 Q219.6406,310.6563 219.2656,310.6563 Q218.9219,310.6563 218.7188,310.4531 Q218.5156,310.2656 218.4063,309.75 Q218.3594,309.3906 218.1719,309.2031 Q217.8438,308.8281 217.2344,308.6094 Q216.625,308.3906 216,308.3906 Q215.2344,308.3906 214.5938,308.7188 Q213.9688,309.0469 213.4688,309.7969 Q212.9844,310.5469 212.9844,311.5781 L212.9844,312.6719 Q212.9844,313.9063 213.875,314.7344 Q214.7656,315.5469 216.3594,315.5469 Q217.2969,315.5469 217.9531,315.2969 Q218.3438,315.1406 218.7656,314.7031 Q219.0313,314.4375 219.1719,314.3594 Q219.3281,314.2813 219.5313,314.2813 Q219.8594,314.2813 220.1094,314.5469 Q220.375,314.7969 220.375,315.1406 Q220.375,315.4844 220.0313,315.8906 Q219.5313,316.4688 218.7344,316.7969 Q217.6563,317.25 216.3594,317.25 Q214.8438,317.25 213.6406,316.625 Q212.6563,316.125 211.9688,315.0625 Q211.2813,313.9844 211.2813,312.7031 L211.2813,311.5469 Q211.2813,310.2188 211.8906,309.0781 Q212.5156,307.9219 213.6094,307.3125 Q214.7031,306.6875 215.9375,306.6875 Q216.6719,306.6875 217.3125,306.8594 Q217.9688,307.0156 218.5156,307.375 Z " fill="#000000"/><text fill="#000000" font-family="sans-serif" font-size="14" lengthAdjust="spacing" textLength="67" x="236.25" y="317.2285">Composite</text><line style="stroke:#181818;stroke-width:0.5;" x1="148.5" x2="358.5" y1="327.5" y2="327.5"/><text fill="#000000" font-family="sans-serif" font-size="14" lengthAdjust="spacing" textLength="89" x="153.5" y="346.0332">-name : String</text><text fill="#000000" font-family="sans-serif" font-size="14" lengthAdjust="spacing" textLength="200" x="153.5" y="363.6426">-children : List&lt;FileSystemItem&gt;</text><line style="stroke:#181818;stroke-width:0.5;" x1="148.5" x2="358.5" y1="370.7188" y2="370.7188"/><text fill="#000000" font-family="sans-serif" font-size="14" lengthAdjust="spacing" textLength="175" x="153.5" y="389.252">+add(item : FileSystemItem)</text><text fill="#000000" font-family="sans-serif" font-size="14" lengthAdjust="spacing" textLength="91" x="153.5" y="406.8613">+getSize() : int</text><text fill="#000000" font-family="sans-serif" font-size="14" lengthAdjust="spacing" textLength="93" x="153.5" y="424.4707">+showDetails()</text></g><!--class Folder--><g id="elem_Folder"><rect fill="#F1F1F1" height="48" id="Folder" rx="2.5" ry="2.5" style="stroke:#181818;stroke-width:0.5;" width="73" x="120" y="7"/><ellipse cx="135" cy="23" fill="#ADD1B2" rx="11" ry="11" style="stroke:#181818;stroke-width:1.0;"/><path d="M137.7656,18.875 Q137.9219,18.6563 138.1094,18.5469 Q138.2969,18.4375 138.5156,18.4375 Q138.8906,18.4375 139.125,18.7031 Q139.3594,18.9531 139.3594,19.5625 L139.3594,21.0156 Q139.3594,21.625 139.125,21.8906 Q138.8906,22.1563 138.5156,22.1563 Q138.1719,22.1563 137.9688,21.9531 Q137.7656,21.7656 137.6563,21.25 Q137.6094,20.8906 137.4219,20.7031 Q137.0938,20.3281 136.4844,20.1094 Q135.875,19.8906 135.25,19.8906 Q134.4844,19.8906 133.8438,20.2188 Q133.2188,20.5469 132.7188,21.2969 Q132.2344,22.0469 132.2344,23.0781 L132.2344,24.1719 Q132.2344,25.4063 133.125,26.2344 Q134.0156,27.0469 135.6094,27.0469 Q136.5469,27.0469 137.2031,26.7969 Q137.5938,26.6406 138.0156,26.2031 Q138.2813,25.9375 138.4219,25.8594 Q138.5781,25.7813 138.7813,25.7813 Q139.1094,25.7813 139.3594,26.0469 Q139.625,26.2969 139.625,26.6406 Q139.625,26.9844 139.2813,27.3906 Q138.7813,27.9688 137.9844,28.2969 Q136.9063,28.75 135.6094,28.75 Q134.0938,28.75 132.8906,28.125 Q131.9063,27.625 131.2188,26.5625 Q130.5313,25.4844 130.5313,24.2031 L130.5313,23.0469 Q130.5313,21.7188 131.1406,20.5781 Q131.7656,19.4219 132.8594,18.8125 Q133.9531,18.1875 135.1875,18.1875 Q135.9219,18.1875 136.5625,18.3594 Q137.2188,18.5156 137.7656,18.875 Z " fill="#000000"/><text fill="#000000" font-family="sans-serif" font-size="14" lengthAdjust="spacing" textLength="41" x="149" y="28.7285">Folder</text><line style="stroke:#181818;stroke-width:0.5;" x1="121" x2="192" y1="39" y2="39"/><line style="stroke:#181818;stroke-width:0.5;" x1="121" x2="192" y1="47" y2="47"/></g><!--reverse link FileSystemItem to Leaf--><g id="link_FileSystemItem_Leaf"><path d="M124.038,250.3888 C112.038,271.2288 106.21,281.36 93.03,304.25 " fill="none" id="FileSystemItem-backto-Leaf" style="stroke:#181818;stroke-width:1.0;stroke-dasharray:7.0,7.0;"/><polygon fill="none" points="133.02,234.79,118.8384,247.3948,129.2376,253.3828,133.02,234.79" style="stroke:#181818;stroke-width:1.0;"/></g><!--reverse link FileSystemItem to Composite--><g id="link_FileSystemItem_Composite"><path d="M188.9649,250.3872 C199.4549,268.5972 203.1,274.95 214.91,295.47 " fill="none" id="FileSystemItem-backto-Composite" style="stroke:#181818;stroke-width:1.0;stroke-dasharray:7.0,7.0;"/><polygon fill="none" points="179.98,234.79,183.7658,253.3821,194.1639,247.3922,179.98,234.79" style="stroke:#181818;stroke-width:1.0;"/></g><!--link Folder to FileSystemItem--><g id="link_Folder_FileSystemItem"><path codeLine="27" d="M156.5,67.27 C156.5,92.4 156.5,114.93 156.5,145.35 " fill="none" id="Folder-FileSystemItem" style="stroke:#181818;stroke-width:1.0;"/><polygon fill="none" points="156.5,55.27,152.5,61.27,156.5,67.27,160.5,61.27,156.5,55.27" style="stroke:#181818;stroke-width:1.0;"/><polygon fill="#181818" points="156.5,151.35,160.5,142.35,156.5,146.35,152.5,142.35,156.5,151.35" style="stroke:#181818;stroke-width:1.0;"/><text fill="#000000" font-family="sans-serif" font-size="13" lengthAdjust="spacing" textLength="85" x="157.5" y="117.9951">contains many</text></g><!--SRC=[dP9FIyD04CNl-odcPa9fySyjs88eXK9FnY-m9fDcS7Ssx4wHAdvt9qbRQ_6W1d9vRtRUxosRNeWx6ws7ojcKxaGYFMy5LrNWajuGBesvWAiPFBK8zy5tWP45LYmO6riXP2hwmD242DQvtD3HMfB3SfS4_Kf_U3UWtmGsAFtcB8S2T7YlfZQyFg1OSYdBpKUVUZschj4sa9NaEuVGRyhDm3eQW-oLAVsSDmMs7ZMgr6QysMkfhtOQ_skecvEhI2J31R1ECCO3rvVtFxYg9LT7PDNNbEJs-z75ditMTKRzgk9iT_xNIe_eh53Wr5ANp3Au6YE4wNHn3br0DNPDu2tlZE6W9IDjMe7Gm7YoAFR16YX1h8EvFY8O7iZGJ66E5Ok1wZ0ucO_6x8YkTaJPHXud378DVUWd]--></g></svg>