<?xml version="1.0" encoding="us-ascii" standalone="no"?><svg xmlns="http://www.w3.org/2000/svg" xmlns:xlink="http://www.w3.org/1999/xlink" contentStyleType="text/css" height="455px" preserveAspectRatio="none" style="width:782px;height:455px;background:#FFFFFF;" version="1.1" viewBox="0 0 782 455" width="782px" zoomAndPan="magnify"><defs/><g><!--class Image--><g id="elem_Image"><rect codeLine="4" fill="#F1F1F1" height="65.6094" id="Image" rx="2.5" ry="2.5" style="stroke:#181818;stroke-width:0.5;" width="74" x="212" y="7"/><ellipse cx="228.35" cy="23" fill="#B4A7E5" rx="11" ry="11" style="stroke:#181818;stroke-width:1.0;"/><path d="M229.3031,19.6406 L229.3031,26.2969 L231.0219,26.2969 Q231.6313,26.2969 231.8969,26.5313 Q232.1625,26.7656 232.1625,27.1563 Q232.1625,27.5313 231.8969,27.7656 Q231.6313,28 231.0219,28 L225.8813,28 Q225.2719,28 225.0063,27.7656 Q224.7406,27.5313 224.7406,27.1406 Q224.7406,26.7656 225.0063,26.5313 Q225.2719,26.2969 225.8813,26.2969 L227.6,26.2969 L227.6,19.6406 L225.8813,19.6406 Q225.2719,19.6406 225.0063,19.4063 Q224.7406,19.1719 224.7406,18.7813 Q224.7406,18.4063 225.0063,18.1719 Q225.2719,17.9375 225.8813,17.9375 L231.0219,17.9375 Q231.6313,17.9375 231.8969,18.1719 Q232.1625,18.4063 232.1625,18.7813 Q232.1625,19.1719 231.8969,19.4063 Q231.6313,19.6406 231.0219,19.6406 L229.3031,19.6406 Z " fill="#000000"/><text fill="#000000" font-family="sans-serif" font-size="14" font-style="italic" lengthAdjust="spacing" textLength="39" x="242.65" y="28.7285">Image</text><line style="stroke:#181818;stroke-width:0.5;" x1="213" x2="285" y1="39" y2="39"/><line style="stroke:#181818;stroke-width:0.5;" x1="213" x2="285" y1="47" y2="47"/><text fill="#000000" font-family="sans-serif" font-size="14" lengthAdjust="spacing" textLength="62" x="218" y="65.5332">+display()</text></g><!--class RealImage--><g id="elem_RealImage"><rect codeLine="9" fill="#F1F1F1" height="118.4375" id="RealImage" rx="2.5" ry="2.5" style="stroke:#181818;stroke-width:0.5;" width="199" x="183.5" y="330"/><ellipse cx="245.25" cy="346" fill="#ADD1B2" rx="11" ry="11" style="stroke:#181818;stroke-width:1.0;"/><path d="M248.0156,341.875 Q248.1719,341.6563 248.3594,341.5469 Q248.5469,341.4375 248.7656,341.4375 Q249.1406,341.4375 249.375,341.7031 Q249.6094,341.9531 249.6094,342.5625 L249.6094,344.0156 Q249.6094,344.625 249.375,344.8906 Q249.1406,345.1563 248.7656,345.1563 Q248.4219,345.1563 248.2188,344.9531 Q248.0156,344.7656 247.9063,344.25 Q247.8594,343.8906 247.6719,343.7031 Q247.3438,343.3281 246.7344,343.1094 Q246.125,342.8906 245.5,342.8906 Q244.7344,342.8906 244.0938,343.2188 Q243.4688,343.5469 242.9688,344.2969 Q242.4844,345.0469 242.4844,346.0781 L242.4844,347.1719 Q242.4844,348.4063 243.375,349.2344 Q244.2656,350.0469 245.8594,350.0469 Q246.7969,350.0469 247.4531,349.7969 Q247.8438,349.6406 248.2656,349.2031 Q248.5313,348.9375 248.6719,348.8594 Q248.8281,348.7813 249.0313,348.7813 Q249.3594,348.7813 249.6094,349.0469 Q249.875,349.2969 249.875,349.6406 Q249.875,349.9844 249.5313,350.3906 Q249.0313,350.9688 248.2344,351.2969 Q247.1563,351.75 245.8594,351.75 Q244.3438,351.75 243.1406,351.125 Q242.1563,350.625 241.4688,349.5625 Q240.7813,348.4844 240.7813,347.2031 L240.7813,346.0469 Q240.7813,344.7188 241.3906,343.5781 Q242.0156,342.4219 243.1094,341.8125 Q244.2031,341.1875 245.4375,341.1875 Q246.1719,341.1875 246.8125,341.3594 Q247.4688,341.5156 248.0156,341.875 Z " fill="#000000"/><text fill="#000000" font-family="sans-serif" font-size="14" lengthAdjust="spacing" textLength="67" x="265.75" y="351.7285">RealImage</text><line style="stroke:#181818;stroke-width:0.5;" x1="184.5" x2="381.5" y1="362" y2="362"/><text fill="#000000" font-family="sans-serif" font-size="14" lengthAdjust="spacing" textLength="107" x="189.5" y="380.5332">-filename : String</text><line style="stroke:#181818;stroke-width:0.5;" x1="184.5" x2="381.5" y1="387.6094" y2="387.6094"/><text fill="#000000" font-family="sans-serif" font-size="14" lengthAdjust="spacing" textLength="187" x="189.5" y="406.1426">+RealImage(filename : String)</text><text fill="#000000" font-family="sans-serif" font-size="14" lengthAdjust="spacing" textLength="102" x="189.5" y="423.752">-loadFromDisk()</text><text fill="#000000" font-family="sans-serif" font-size="14" lengthAdjust="spacing" textLength="62" x="189.5" y="441.3613">+display()</text></g><!--class ProxyImage--><g id="elem_ProxyImage"><rect codeLine="17" fill="#F1F1F1" height="118.4375" id="ProxyImage" rx="2.5" ry="2.5" style="stroke:#181818;stroke-width:0.5;" width="205" x="282.5" y="134"/><ellipse cx="344.25" cy="150" fill="#ADD1B2" rx="11" ry="11" style="stroke:#181818;stroke-width:1.0;"/><path d="M347.0156,145.875 Q347.1719,145.6563 347.3594,145.5469 Q347.5469,145.4375 347.7656,145.4375 Q348.1406,145.4375 348.375,145.7031 Q348.6094,145.9531 348.6094,146.5625 L348.6094,148.0156 Q348.6094,148.625 348.375,148.8906 Q348.1406,149.1563 347.7656,149.1563 Q347.4219,149.1563 347.2188,148.9531 Q347.0156,148.7656 346.9063,148.25 Q346.8594,147.8906 346.6719,147.7031 Q346.3438,147.3281 345.7344,147.1094 Q345.125,146.8906 344.5,146.8906 Q343.7344,146.8906 343.0938,147.2188 Q342.4688,147.5469 341.9688,148.2969 Q341.4844,149.0469 341.4844,150.0781 L341.4844,151.1719 Q341.4844,152.4063 342.375,153.2344 Q343.2656,154.0469 344.8594,154.0469 Q345.7969,154.0469 346.4531,153.7969 Q346.8438,153.6406 347.2656,153.2031 Q347.5313,152.9375 347.6719,152.8594 Q347.8281,152.7813 348.0313,152.7813 Q348.3594,152.7813 348.6094,153.0469 Q348.875,153.2969 348.875,153.6406 Q348.875,153.9844 348.5313,154.3906 Q348.0313,154.9688 347.2344,155.2969 Q346.1563,155.75 344.8594,155.75 Q343.3438,155.75 342.1406,155.125 Q341.1563,154.625 340.4688,153.5625 Q339.7813,152.4844 339.7813,151.2031 L339.7813,150.0469 Q339.7813,148.7188 340.3906,147.5781 Q341.0156,146.4219 342.1094,145.8125 Q343.2031,145.1875 344.4375,145.1875 Q345.1719,145.1875 345.8125,145.3594 Q346.4688,145.5156 347.0156,145.875 Z " fill="#000000"/><text fill="#000000" font-family="sans-serif" font-size="14" lengthAdjust="spacing" textLength="73" x="364.75" y="155.7285">ProxyImage</text><line style="stroke:#181818;stroke-width:0.5;" x1="283.5" x2="486.5" y1="166" y2="166"/><text fill="#000000" font-family="sans-serif" font-size="14" lengthAdjust="spacing" textLength="107" x="288.5" y="184.5332">-filename : String</text><text fill="#000000" font-family="sans-serif" font-size="14" lengthAdjust="spacing" textLength="146" x="288.5" y="202.1426">-realImage : RealImage</text><line style="stroke:#181818;stroke-width:0.5;" x1="283.5" x2="486.5" y1="209.2188" y2="209.2188"/><text fill="#000000" font-family="sans-serif" font-size="14" lengthAdjust="spacing" textLength="193" x="288.5" y="227.752">+ProxyImage(filename : String)</text><text fill="#000000" font-family="sans-serif" font-size="14" lengthAdjust="spacing" textLength="62" x="288.5" y="245.3613">+display()</text></g><path d="M6,362.5 L6,405.2031 A0,0 0 0 0 6,405.2031 L148,405.2031 A0,0 0 0 0 148,405.2031 L148,387.8516 L187.5,400.4141 L148,379.8516 L148,372.5 L138,362.5 L6,362.5 A0,0 0 0 0 6,362.5 " fill="#FEFFDD" style="stroke:#181818;stroke-width:0.5;"/><path d="M138,362.5 L138,372.5 L148,372.5 L138,362.5 " fill="#FEFFDD" style="stroke:#181818;stroke-width:0.5;"/><text fill="#000000" font-family="sans-serif" font-size="13" lengthAdjust="spacing" textLength="95" x="12" y="380.9951">Heavy operation!</text><text fill="#000000" font-family="sans-serif" font-size="13" lengthAdjust="spacing" textLength="121" x="12" y="397.3467">Calls loadFromDisk()</text><path d="M522.5,150.5 L522.5,184.2031 L350.5,239.6328 L522.5,192.2031 L522.5,225.9063 A0,0 0 0 0 522.5,225.9063 L775.5,225.9063 A0,0 0 0 0 775.5,225.9063 L775.5,160.5 L765.5,150.5 L522.5,150.5 A0,0 0 0 0 522.5,150.5 " fill="#FEFFDD" style="stroke:#181818;stroke-width:0.5;"/><path d="M765.5,150.5 L765.5,160.5 L775.5,160.5 L765.5,150.5 " fill="#FEFFDD" style="stroke:#181818;stroke-width:0.5;"/><text fill="#000000" font-family="sans-serif" font-size="13" lengthAdjust="spacing" textLength="126" x="528.5" y="168.9951">if (realImage == null) {</text><text fill="#000000" font-family="sans-serif" font-size="13" lengthAdjust="spacing" textLength="216" x="544.5" y="185.3467">realImage = new RealImage(filename)</text><text fill="#000000" font-family="sans-serif" font-size="13" lengthAdjust="spacing" textLength="4" x="528.5" y="201.6982">}</text><text fill="#000000" font-family="sans-serif" font-size="13" lengthAdjust="spacing" textLength="109" x="528.5" y="218.0498">realImage.display()</text><!--reverse link Image to RealImage--><g id="link_Image_RealImage"><path d="M251.9858,91.186 C254.5358,132.616 258.43,188.79 265,252 C267.66,277.58 271.28,305.79 274.58,329.85 " fill="none" id="Image-backto-RealImage" style="stroke:#181818;stroke-width:1.0;stroke-dasharray:7.0,7.0;"/><polygon fill="none" points="250.88,73.22,245.9971,91.5546,257.9745,90.8174,250.88,73.22" style="stroke:#181818;stroke-width:1.0;"/></g><!--reverse link Image to ProxyImage--><g id="link_Image_ProxyImage"><path d="M289.8881,86.3933 C305.7981,104.0533 313.99,113.16 332.59,133.81 " fill="none" id="Image-backto-ProxyImage" style="stroke:#181818;stroke-width:1.0;stroke-dasharray:7.0,7.0;"/><polygon fill="none" points="277.84,73.02,285.4303,90.4093,294.3458,82.3772,277.84,73.02" style="stroke:#181818;stroke-width:1.0;"/></g><!--link ProxyImage to RealImage--><g id="link_ProxyImage_RealImage"><path codeLine="25" d="M348.8148,262.831 C335.9048,287.381 329.2835,299.98 316.3735,324.52 " fill="none" id="ProxyImage-RealImage" style="stroke:#181818;stroke-width:1.0;"/><polygon fill="none" points="354.4,252.21,348.0671,255.6588,348.8148,262.831,355.1477,259.3822,354.4,252.21" style="stroke:#181818;stroke-width:1.0;"/><polygon fill="#181818" points="313.58,329.83,321.3103,323.7273,315.9079,325.405,314.2302,320.0026,313.58,329.83" style="stroke:#181818;stroke-width:1.0;"/><text fill="#000000" font-family="sans-serif" font-size="13" lengthAdjust="spacing" textLength="113" x="338" y="296.4951">Creates on demand</text></g><!--SRC=[dP7BJiCm44Nt_egX6nAXL3nsbeg4YX2LAe5QVc189gsf7v7j0Ydgl-CcRXDesU2LvPbxvyorMmbTeKK5kKJdxhotudNjQP8RFHSRWal6pk5g22zBWedsP4lCYOdz3IOA5mHV3CAvW4AuIcATf6oxqrstkaV2zngUNjyezwoP0pD2sKg5gYGfqjxzyCgW598qAW8Eyq2b5t76GPeSTQHHAWqM3zQeU-5MINgQxQPbUxRciuPaYfiQfa56Des8JULVZ1dOmtgyuuqSdUzV2nonpaYY5qQxfQXOZyjasMqlIWw3SPZioO7HK912NGmOqyOJI2ezcBBhvhmFrdwHgSWsWyx2qnYbTB-Z95t0pY-wMh5ODhOT5ESHFbY84f8kYj48z5hADAO7lPH2XJvE_EmkZothTGwxPFOetm00]--></g></svg>