<?xml version="1.0" encoding="us-ascii" standalone="no"?><svg xmlns="http://www.w3.org/2000/svg" xmlns:xlink="http://www.w3.org/1999/xlink" contentStyleType="text/css" height="455px" preserveAspectRatio="none" style="width:1150px;height:455px;background:#FFFFFF;" version="1.1" viewBox="0 0 1150 455" width="1150px" zoomAndPan="magnify"><defs/><g><!--class FoodItem--><g id="elem_FoodItem"><rect codeLine="4" fill="#F1F1F1" height="83.2188" id="FoodItem" rx="2.5" ry="2.5" style="stroke:#181818;stroke-width:0.5;" width="170" x="109" y="212"/><ellipse cx="159.75" cy="228" fill="#B4A7E5" rx="11" ry="11" style="stroke:#181818;stroke-width:1.0;"/><path d="M160.7031,224.6406 L160.7031,231.2969 L162.4219,231.2969 Q163.0313,231.2969 163.2969,231.5313 Q163.5625,231.7656 163.5625,232.1563 Q163.5625,232.5313 163.2969,232.7656 Q163.0313,233 162.4219,233 L157.2813,233 Q156.6719,233 156.4063,232.7656 Q156.1406,232.5313 156.1406,232.1406 Q156.1406,231.7656 156.4063,231.5313 Q156.6719,231.2969 157.2813,231.2969 L159,231.2969 L159,224.6406 L157.2813,224.6406 Q156.6719,224.6406 156.4063,224.4063 Q156.1406,224.1719 156.1406,223.7813 Q156.1406,223.4063 156.4063,223.1719 Q156.6719,222.9375 157.2813,222.9375 L162.4219,222.9375 Q163.0313,222.9375 163.2969,223.1719 Q163.5625,223.4063 163.5625,223.7813 Q163.5625,224.1719 163.2969,224.4063 Q163.0313,224.6406 162.4219,224.6406 L160.7031,224.6406 Z " fill="#000000"/><text fill="#000000" font-family="sans-serif" font-size="14" font-style="italic" lengthAdjust="spacing" textLength="60" x="180.25" y="233.7285">FoodItem</text><line style="stroke:#181818;stroke-width:0.5;" x1="110" x2="278" y1="244" y2="244"/><line style="stroke:#181818;stroke-width:0.5;" x1="110" x2="278" y1="252" y2="252"/><text fill="#000000" font-family="sans-serif" font-size="14" lengthAdjust="spacing" textLength="158" x="115" y="270.5332">+getDescription() : String</text><text fill="#000000" font-family="sans-serif" font-size="14" lengthAdjust="spacing" textLength="122" x="115" y="288.1426">+getCost() : double</text></g><!--class PlainPizza--><g id="elem_PlainPizza"><rect codeLine="10" fill="#F1F1F1" height="83.2188" id="PlainPizza" rx="2.5" ry="2.5" style="stroke:#181818;stroke-width:0.5;" width="170" x="7" y="365"/><ellipse cx="56.25" cy="381" fill="#ADD1B2" rx="11" ry="11" style="stroke:#181818;stroke-width:1.0;"/><path d="M59.0156,376.875 Q59.1719,376.6563 59.3594,376.5469 Q59.5469,376.4375 59.7656,376.4375 Q60.1406,376.4375 60.375,376.7031 Q60.6094,376.9531 60.6094,377.5625 L60.6094,379.0156 Q60.6094,379.625 60.375,379.8906 Q60.1406,380.1563 59.7656,380.1563 Q59.4219,380.1563 59.2188,379.9531 Q59.0156,379.7656 58.9063,379.25 Q58.8594,378.8906 58.6719,378.7031 Q58.3438,378.3281 57.7344,378.1094 Q57.125,377.8906 56.5,377.8906 Q55.7344,377.8906 55.0938,378.2188 Q54.4688,378.5469 53.9688,379.2969 Q53.4844,380.0469 53.4844,381.0781 L53.4844,382.1719 Q53.4844,383.4063 54.375,384.2344 Q55.2656,385.0469 56.8594,385.0469 Q57.7969,385.0469 58.4531,384.7969 Q58.8438,384.6406 59.2656,384.2031 Q59.5313,383.9375 59.6719,383.8594 Q59.8281,383.7813 60.0313,383.7813 Q60.3594,383.7813 60.6094,384.0469 Q60.875,384.2969 60.875,384.6406 Q60.875,384.9844 60.5313,385.3906 Q60.0313,385.9688 59.2344,386.2969 Q58.1563,386.75 56.8594,386.75 Q55.3438,386.75 54.1406,386.125 Q53.1563,385.625 52.4688,384.5625 Q51.7813,383.4844 51.7813,382.2031 L51.7813,381.0469 Q51.7813,379.7188 52.3906,378.5781 Q53.0156,377.4219 54.1094,376.8125 Q55.2031,376.1875 56.4375,376.1875 Q57.1719,376.1875 57.8125,376.3594 Q58.4688,376.5156 59.0156,376.875 Z " fill="#000000"/><text fill="#000000" font-family="sans-serif" font-size="14" lengthAdjust="spacing" textLength="63" x="76.75" y="386.7285">PlainPizza</text><line style="stroke:#181818;stroke-width:0.5;" x1="8" x2="176" y1="397" y2="397"/><line style="stroke:#181818;stroke-width:0.5;" x1="8" x2="176" y1="405" y2="405"/><text fill="#000000" font-family="sans-serif" font-size="14" lengthAdjust="spacing" textLength="158" x="13" y="423.5332">+getDescription() : String</text><text fill="#000000" font-family="sans-serif" font-size="14" lengthAdjust="spacing" textLength="122" x="13" y="441.1426">+getCost() : double</text></g><!--class PlainBurger--><g id="elem_PlainBurger"><rect codeLine="15" fill="#F1F1F1" height="83.2188" id="PlainBurger" rx="2.5" ry="2.5" style="stroke:#181818;stroke-width:0.5;" width="170" x="212" y="365"/><ellipse cx="255.8" cy="381" fill="#ADD1B2" rx="11" ry="11" style="stroke:#181818;stroke-width:1.0;"/><path d="M258.5656,376.875 Q258.7219,376.6563 258.9094,376.5469 Q259.0969,376.4375 259.3156,376.4375 Q259.6906,376.4375 259.925,376.7031 Q260.1594,376.9531 260.1594,377.5625 L260.1594,379.0156 Q260.1594,379.625 259.925,379.8906 Q259.6906,380.1563 259.3156,380.1563 Q258.9719,380.1563 258.7688,379.9531 Q258.5656,379.7656 258.4563,379.25 Q258.4094,378.8906 258.2219,378.7031 Q257.8938,378.3281 257.2844,378.1094 Q256.675,377.8906 256.05,377.8906 Q255.2844,377.8906 254.6438,378.2188 Q254.0188,378.5469 253.5188,379.2969 Q253.0344,380.0469 253.0344,381.0781 L253.0344,382.1719 Q253.0344,383.4063 253.925,384.2344 Q254.8156,385.0469 256.4094,385.0469 Q257.3469,385.0469 258.0031,384.7969 Q258.3938,384.6406 258.8156,384.2031 Q259.0813,383.9375 259.2219,383.8594 Q259.3781,383.7813 259.5813,383.7813 Q259.9094,383.7813 260.1594,384.0469 Q260.425,384.2969 260.425,384.6406 Q260.425,384.9844 260.0813,385.3906 Q259.5813,385.9688 258.7844,386.2969 Q257.7063,386.75 256.4094,386.75 Q254.8938,386.75 253.6906,386.125 Q252.7063,385.625 252.0188,384.5625 Q251.3313,383.4844 251.3313,382.2031 L251.3313,381.0469 Q251.3313,379.7188 251.9406,378.5781 Q252.5656,377.4219 253.6594,376.8125 Q254.7531,376.1875 255.9875,376.1875 Q256.7219,376.1875 257.3625,376.3594 Q258.0188,376.5156 258.5656,376.875 Z " fill="#000000"/><text fill="#000000" font-family="sans-serif" font-size="14" lengthAdjust="spacing" textLength="74" x="276.2" y="386.7285">PlainBurger</text><line style="stroke:#181818;stroke-width:0.5;" x1="213" x2="381" y1="397" y2="397"/><line style="stroke:#181818;stroke-width:0.5;" x1="213" x2="381" y1="405" y2="405"/><text fill="#000000" font-family="sans-serif" font-size="14" lengthAdjust="spacing" textLength="158" x="218" y="423.5332">+getDescription() : String</text><text fill="#000000" font-family="sans-serif" font-size="14" lengthAdjust="spacing" textLength="122" x="218" y="441.1426">+getCost() : double</text></g><!--class ToppingDecorator--><g id="elem_ToppingDecorator"><rect codeLine="21" fill="#F1F1F1" height="118.4375" id="ToppingDecorator" rx="2.5" ry="2.5" style="stroke:#181818;stroke-width:0.5;" width="242" x="281" y="7"/><ellipse cx="340.25" cy="23" fill="#A9DCDF" rx="11" ry="11" style="stroke:#181818;stroke-width:1.0;"/><path d="M342.4375,24.7656 L338.2969,24.7656 L337.875,25.7969 L338.2969,25.7969 Q338.9063,25.7969 339.1719,26.0313 Q339.4375,26.2656 339.4375,26.6563 Q339.4375,27.0313 339.1719,27.2656 Q338.9063,27.5 338.2969,27.5 L336,27.5 Q335.3906,27.5 335.1406,27.2656 Q334.875,27.0313 334.875,26.6406 Q334.875,26.2656 335.1563,26.0313 Q335.4219,25.7813 336.0469,25.7969 L338.7188,19.1406 L337.6094,19.1406 Q337,19.1406 336.7344,18.9063 Q336.4688,18.6719 336.4688,18.2813 Q336.4688,17.9063 336.7344,17.6719 Q337,17.4375 337.6094,17.4375 L341.2813,17.4375 L344.6719,25.7969 Q345.2656,25.7969 345.4531,25.9375 Q345.8438,26.2031 345.8438,26.6563 Q345.8438,27.0313 345.5781,27.2656 Q345.3281,27.5 344.7188,27.5 L342.4219,27.5 Q341.8125,27.5 341.5469,27.2656 Q341.2813,27.0313 341.2813,26.6406 Q341.2813,26.2656 341.5469,26.0313 Q341.8125,25.7969 342.4219,25.7969 L342.8438,25.7969 L342.4375,24.7656 Z M341.7188,23.0625 L340.3594,19.6875 L338.9844,23.0625 L341.7188,23.0625 Z " fill="#000000"/><text fill="#000000" font-family="sans-serif" font-size="14" font-style="italic" lengthAdjust="spacing" textLength="115" x="360.75" y="28.7285">ToppingDecorator</text><line style="stroke:#181818;stroke-width:0.5;" x1="282" x2="522" y1="39" y2="39"/><text fill="#000000" font-family="sans-serif" font-size="14" lengthAdjust="spacing" textLength="133" x="287" y="57.5332">#wrappee : FoodItem</text><line style="stroke:#181818;stroke-width:0.5;" x1="282" x2="522" y1="64.6094" y2="64.6094"/><text fill="#000000" font-family="sans-serif" font-size="14" lengthAdjust="spacing" textLength="230" x="287" y="83.1426">+ToppingDecorator(item : FoodItem)</text><text fill="#000000" font-family="sans-serif" font-size="14" lengthAdjust="spacing" textLength="158" x="287" y="100.752">+getDescription() : String</text><text fill="#000000" font-family="sans-serif" font-size="14" lengthAdjust="spacing" textLength="122" x="287" y="118.3613">+getCost() : double</text></g><!--class Cheese--><g id="elem_Cheese"><rect codeLine="29" fill="#F1F1F1" height="100.8281" id="Cheese" rx="2.5" ry="2.5" style="stroke:#181818;stroke-width:0.5;" width="176" x="314" y="203"/><ellipse cx="373.25" cy="219" fill="#ADD1B2" rx="11" ry="11" style="stroke:#181818;stroke-width:1.0;"/><path d="M376.0156,214.875 Q376.1719,214.6563 376.3594,214.5469 Q376.5469,214.4375 376.7656,214.4375 Q377.1406,214.4375 377.375,214.7031 Q377.6094,214.9531 377.6094,215.5625 L377.6094,217.0156 Q377.6094,217.625 377.375,217.8906 Q377.1406,218.1563 376.7656,218.1563 Q376.4219,218.1563 376.2188,217.9531 Q376.0156,217.7656 375.9063,217.25 Q375.8594,216.8906 375.6719,216.7031 Q375.3438,216.3281 374.7344,216.1094 Q374.125,215.8906 373.5,215.8906 Q372.7344,215.8906 372.0938,216.2188 Q371.4688,216.5469 370.9688,217.2969 Q370.4844,218.0469 370.4844,219.0781 L370.4844,220.1719 Q370.4844,221.4063 371.375,222.2344 Q372.2656,223.0469 373.8594,223.0469 Q374.7969,223.0469 375.4531,222.7969 Q375.8438,222.6406 376.2656,222.2031 Q376.5313,221.9375 376.6719,221.8594 Q376.8281,221.7813 377.0313,221.7813 Q377.3594,221.7813 377.6094,222.0469 Q377.875,222.2969 377.875,222.6406 Q377.875,222.9844 377.5313,223.3906 Q377.0313,223.9688 376.2344,224.2969 Q375.1563,224.75 373.8594,224.75 Q372.3438,224.75 371.1406,224.125 Q370.1563,223.625 369.4688,222.5625 Q368.7813,221.4844 368.7813,220.2031 L368.7813,219.0469 Q368.7813,217.7188 369.3906,216.5781 Q370.0156,215.4219 371.1094,214.8125 Q372.2031,214.1875 373.4375,214.1875 Q374.1719,214.1875 374.8125,214.3594 Q375.4688,214.5156 376.0156,214.875 Z " fill="#000000"/><text fill="#000000" font-family="sans-serif" font-size="14" lengthAdjust="spacing" textLength="49" x="393.75" y="224.7285">Cheese</text><line style="stroke:#181818;stroke-width:0.5;" x1="315" x2="489" y1="235" y2="235"/><line style="stroke:#181818;stroke-width:0.5;" x1="315" x2="489" y1="243" y2="243"/><text fill="#000000" font-family="sans-serif" font-size="14" lengthAdjust="spacing" textLength="164" x="320" y="261.5332">+Cheese(item : FoodItem)</text><text fill="#000000" font-family="sans-serif" font-size="14" lengthAdjust="spacing" textLength="158" x="320" y="279.1426">+getDescription() : String</text><text fill="#000000" font-family="sans-serif" font-size="14" lengthAdjust="spacing" textLength="122" x="320" y="296.752">+getCost() : double</text></g><!--class Sauce--><g id="elem_Sauce"><rect codeLine="35" fill="#F1F1F1" height="100.8281" id="Sauce" rx="2.5" ry="2.5" style="stroke:#181818;stroke-width:0.5;" width="170" x="768" y="203"/><ellipse cx="828.75" cy="219" fill="#ADD1B2" rx="11" ry="11" style="stroke:#181818;stroke-width:1.0;"/><path d="M831.5156,214.875 Q831.6719,214.6563 831.8594,214.5469 Q832.0469,214.4375 832.2656,214.4375 Q832.6406,214.4375 832.875,214.7031 Q833.1094,214.9531 833.1094,215.5625 L833.1094,217.0156 Q833.1094,217.625 832.875,217.8906 Q832.6406,218.1563 832.2656,218.1563 Q831.9219,218.1563 831.7188,217.9531 Q831.5156,217.7656 831.4063,217.25 Q831.3594,216.8906 831.1719,216.7031 Q830.8438,216.3281 830.2344,216.1094 Q829.625,215.8906 829,215.8906 Q828.2344,215.8906 827.5938,216.2188 Q826.9688,216.5469 826.4688,217.2969 Q825.9844,218.0469 825.9844,219.0781 L825.9844,220.1719 Q825.9844,221.4063 826.875,222.2344 Q827.7656,223.0469 829.3594,223.0469 Q830.2969,223.0469 830.9531,222.7969 Q831.3438,222.6406 831.7656,222.2031 Q832.0313,221.9375 832.1719,221.8594 Q832.3281,221.7813 832.5313,221.7813 Q832.8594,221.7813 833.1094,222.0469 Q833.375,222.2969 833.375,222.6406 Q833.375,222.9844 833.0313,223.3906 Q832.5313,223.9688 831.7344,224.2969 Q830.6563,224.75 829.3594,224.75 Q827.8438,224.75 826.6406,224.125 Q825.6563,223.625 824.9688,222.5625 Q824.2813,221.4844 824.2813,220.2031 L824.2813,219.0469 Q824.2813,217.7188 824.8906,216.5781 Q825.5156,215.4219 826.6094,214.8125 Q827.7031,214.1875 828.9375,214.1875 Q829.6719,214.1875 830.3125,214.3594 Q830.9688,214.5156 831.5156,214.875 Z " fill="#000000"/><text fill="#000000" font-family="sans-serif" font-size="14" lengthAdjust="spacing" textLength="40" x="849.25" y="224.7285">Sauce</text><line style="stroke:#181818;stroke-width:0.5;" x1="769" x2="937" y1="235" y2="235"/><line style="stroke:#181818;stroke-width:0.5;" x1="769" x2="937" y1="243" y2="243"/><text fill="#000000" font-family="sans-serif" font-size="14" lengthAdjust="spacing" textLength="155" x="774" y="261.5332">+Sauce(item : FoodItem)</text><text fill="#000000" font-family="sans-serif" font-size="14" lengthAdjust="spacing" textLength="158" x="774" y="279.1426">+getDescription() : String</text><text fill="#000000" font-family="sans-serif" font-size="14" lengthAdjust="spacing" textLength="122" x="774" y="296.752">+getCost() : double</text></g><!--class Mayo--><g id="elem_Mayo"><rect codeLine="41" fill="#F1F1F1" height="100.8281" id="Mayo" rx="2.5" ry="2.5" style="stroke:#181818;stroke-width:0.5;" width="170" x="973" y="203"/><ellipse cx="1036.75" cy="219" fill="#ADD1B2" rx="11" ry="11" style="stroke:#181818;stroke-width:1.0;"/><path d="M1039.5156,214.875 Q1039.6719,214.6563 1039.8594,214.5469 Q1040.0469,214.4375 1040.2656,214.4375 Q1040.6406,214.4375 1040.875,214.7031 Q1041.1094,214.9531 1041.1094,215.5625 L1041.1094,217.0156 Q1041.1094,217.625 1040.875,217.8906 Q1040.6406,218.1563 1040.2656,218.1563 Q1039.9219,218.1563 1039.7188,217.9531 Q1039.5156,217.7656 1039.4063,217.25 Q1039.3594,216.8906 1039.1719,216.7031 Q1038.8438,216.3281 1038.2344,216.1094 Q1037.625,215.8906 1037,215.8906 Q1036.2344,215.8906 1035.5938,216.2188 Q1034.9688,216.5469 1034.4688,217.2969 Q1033.9844,218.0469 1033.9844,219.0781 L1033.9844,220.1719 Q1033.9844,221.4063 1034.875,222.2344 Q1035.7656,223.0469 1037.3594,223.0469 Q1038.2969,223.0469 1038.9531,222.7969 Q1039.3438,222.6406 1039.7656,222.2031 Q1040.0313,221.9375 1040.1719,221.8594 Q1040.3281,221.7813 1040.5313,221.7813 Q1040.8594,221.7813 1041.1094,222.0469 Q1041.375,222.2969 1041.375,222.6406 Q1041.375,222.9844 1041.0313,223.3906 Q1040.5313,223.9688 1039.7344,224.2969 Q1038.6563,224.75 1037.3594,224.75 Q1035.8438,224.75 1034.6406,224.125 Q1033.6563,223.625 1032.9688,222.5625 Q1032.2813,221.4844 1032.2813,220.2031 L1032.2813,219.0469 Q1032.2813,217.7188 1032.8906,216.5781 Q1033.5156,215.4219 1034.6094,214.8125 Q1035.7031,214.1875 1036.9375,214.1875 Q1037.6719,214.1875 1038.3125,214.3594 Q1038.9688,214.5156 1039.5156,214.875 Z " fill="#000000"/><text fill="#000000" font-family="sans-serif" font-size="14" lengthAdjust="spacing" textLength="34" x="1057.25" y="224.7285">Mayo</text><line style="stroke:#181818;stroke-width:0.5;" x1="974" x2="1142" y1="235" y2="235"/><line style="stroke:#181818;stroke-width:0.5;" x1="974" x2="1142" y1="243" y2="243"/><text fill="#000000" font-family="sans-serif" font-size="14" lengthAdjust="spacing" textLength="149" x="979" y="261.5332">+Mayo(item : FoodItem)</text><text fill="#000000" font-family="sans-serif" font-size="14" lengthAdjust="spacing" textLength="158" x="979" y="279.1426">+getDescription() : String</text><text fill="#000000" font-family="sans-serif" font-size="14" lengthAdjust="spacing" textLength="122" x="979" y="296.752">+getCost() : double</text></g><path d="M525,235.5 L525,244.6758 L442,291.0234 L525,252.6758 L525,261.8516 A0,0 0 0 0 525,261.8516 L733,261.8516 A0,0 0 0 0 733,261.8516 L733,245.5 L723,235.5 L525,235.5 A0,0 0 0 0 525,235.5 " fill="#FEFFDD" style="stroke:#181818;stroke-width:0.5;"/><path d="M723,235.5 L723,245.5 L733,245.5 L723,235.5 " fill="#FEFFDD" style="stroke:#181818;stroke-width:0.5;"/><text fill="#000000" font-family="sans-serif" font-size="13" lengthAdjust="spacing" textLength="187" x="531" y="253.9951">return wrappee.getCost() + 1.00;</text><!--reverse link FoodItem to PlainPizza--><g id="link_FoodItem_PlainPizza"><path d="M156.3231,310.2749 C141.7431,331.8549 134,343.33 119.45,364.87 " fill="none" id="FoodItem-backto-PlainPizza" style="stroke:#181818;stroke-width:1.0;stroke-dasharray:7.0,7.0;"/><polygon fill="none" points="166.4,295.36,151.3514,306.916,161.2947,313.6339,166.4,295.36" style="stroke:#181818;stroke-width:1.0;"/></g><!--reverse link FoodItem to PlainBurger--><g id="link_FoodItem_PlainBurger"><path d="M232.0131,310.2301 C246.7331,331.8101 254.59,343.33 269.28,364.87 " fill="none" id="FoodItem-backto-PlainBurger" style="stroke:#181818;stroke-width:1.0;stroke-dasharray:7.0,7.0;"/><polygon fill="none" points="221.87,295.36,227.0564,313.6111,236.9697,306.849,221.87,295.36" style="stroke:#181818;stroke-width:1.0;"/></g><!--reverse link FoodItem to ToppingDecorator--><g id="link_FoodItem_ToppingDecorator"><path d="M253.0036,199.8792 C281.4836,174.4792 305.19,153.34 336.76,125.18 " fill="none" id="FoodItem-backto-ToppingDecorator" style="stroke:#181818;stroke-width:1.0;stroke-dasharray:7.0,7.0;"/><polygon fill="none" points="239.57,211.86,256.9972,204.3571,249.01,195.4014,239.57,211.86" style="stroke:#181818;stroke-width:1.0;"/></g><!--link ToppingDecorator to FoodItem--><g id="link_ToppingDecorator_FoodItem"><path codeLine="48" d="M270.8714,129.5902 C256.8014,139.0802 253.39,143.08 242,155 C226.75,170.96 217.7014,187.1548 209.8914,206.0548 " fill="none" id="ToppingDecorator-FoodItem" style="stroke:#181818;stroke-width:1.0;"/><polygon fill="none" points="280.82,122.88,273.609,122.9189,270.8714,129.5902,278.0824,129.5513,280.82,122.88" style="stroke:#181818;stroke-width:1.0;"/><polygon fill="#181818" points="207.6,211.6,214.734,204.8098,209.5095,206.979,207.3403,201.7546,207.6,211.6" style="stroke:#181818;stroke-width:1.0;"/><text fill="#000000" font-family="sans-serif" font-size="13" lengthAdjust="spacing" textLength="34" x="243" y="169.4951">wraps</text></g><!--reverse link ToppingDecorator to Cheese--><g id="link_ToppingDecorator_Cheese"><path d="M402,143.18 C402,168.15 402,179.02 402,202.95 " fill="none" id="ToppingDecorator-backto-Cheese" style="stroke:#181818;stroke-width:1.0;"/><polygon fill="none" points="402,125.18,396,143.18,408,143.18,402,125.18" style="stroke:#181818;stroke-width:1.0;"/></g><!--reverse link ToppingDecorator to Sauce--><g id="link_ToppingDecorator_Sauce"><path d="M540.1311,118.2108 C607.4211,143.7208 675.5,170.59 750,203 C755.82,205.53 761.8,208.2 767.8,210.94 " fill="none" id="ToppingDecorator-backto-Sauce" style="stroke:#181818;stroke-width:1.0;"/><polygon fill="none" points="523.3,111.83,538.0042,123.8211,542.258,112.6004,523.3,111.83" style="stroke:#181818;stroke-width:1.0;"/></g><!--reverse link ToppingDecorator to Mayo--><g id="link_ToppingDecorator_Mayo"><path d="M540.6879,92.5325 C654.3979,115.0225 810.67,150.57 956,203 C961.55,205 967.21,207.22 972.86,209.57 " fill="none" id="ToppingDecorator-backto-Mayo" style="stroke:#181818;stroke-width:1.0;"/><polygon fill="none" points="523.03,89.04,539.5238,98.4184,541.8521,86.6465,523.03,89.04" style="stroke:#181818;stroke-width:1.0;"/></g><!--SRC=[jPJRQi9048Rlzoa6Uc62AFPmbKAXHWfU5AJw0kjcJ9OcEylkXhQMldit1nDffGhLN6Pcz_ic_n3xAfNcXXSWScxjetD6hak7Sq5gARS84yO6S3s6LOOmLmxDXWk48AP2aqBbGYQxjqz4oTnX0PyC_3E45DqChJ1IEqag2262fGUejA_7P5rTIAXSvyY-AjxD669Img13w4WMWYctti8JRCXgNrZaNAg5t6uvo4BdMDIDPnBPGqnBawAv06C0jyt7hMUReI337Hd6rzOPBboJ2wn8QtzLL__3v0hU3DSQqNDsfLRXvos1h8xrRU4_HxdRows3-DnQRfTQd27wQV7TeKeE3DSCua5Dus7Devv7SbtoKfpYKFTTHk6PVz091bNRkGK6zTAzOCwhOpQJclqIeD7eeT-kgDuhovWY7w-HQUQ0Dcr4KTHYFDN7Nngrsy9npn_w7ybaSi_yk51TyWq0]--></g></svg>