<?xml version="1.0" encoding="us-ascii" standalone="no"?><svg xmlns="http://www.w3.org/2000/svg" xmlns:xlink="http://www.w3.org/1999/xlink" contentStyleType="text/css" height="386px" preserveAspectRatio="none" style="width:651px;height:386px;background:#FFFFFF;" version="1.1" viewBox="0 0 651 386" width="651px" zoomAndPan="magnify"><defs/><g><!--class IServer--><g id="elem_IServer"><rect codeLine="4" fill="#F1F1F1" height="65.6094" id="IServer" rx="2.5" ry="2.5" style="stroke:#181818;stroke-width:0.5;" width="324" x="250" y="7"/><ellipse cx="385.25" cy="23" fill="#B4A7E5" rx="11" ry="11" style="stroke:#181818;stroke-width:1.0;"/><path d="M386.2031,19.6406 L386.2031,26.2969 L387.9219,26.2969 Q388.5313,26.2969 388.7969,26.5313 Q389.0625,26.7656 389.0625,27.1563 Q389.0625,27.5313 388.7969,27.7656 Q388.5313,28 387.9219,28 L382.7813,28 Q382.1719,28 381.9063,27.7656 Q381.6406,27.5313 381.6406,27.1406 Q381.6406,26.7656 381.9063,26.5313 Q382.1719,26.2969 382.7813,26.2969 L384.5,26.2969 L384.5,19.6406 L382.7813,19.6406 Q382.1719,19.6406 381.9063,19.4063 Q381.6406,19.1719 381.6406,18.7813 Q381.6406,18.4063 381.9063,18.1719 Q382.1719,17.9375 382.7813,17.9375 L387.9219,17.9375 Q388.5313,17.9375 388.7969,18.1719 Q389.0625,18.4063 389.0625,18.7813 Q389.0625,19.1719 388.7969,19.4063 Q388.5313,19.6406 387.9219,19.6406 L386.2031,19.6406 Z " fill="#000000"/><text fill="#000000" font-family="sans-serif" font-size="14" font-style="italic" lengthAdjust="spacing" textLength="45" x="405.75" y="28.7285">IServer</text><line style="stroke:#181818;stroke-width:0.5;" x1="251" x2="573" y1="39" y2="39"/><line style="stroke:#181818;stroke-width:0.5;" x1="251" x2="573" y1="47" y2="47"/><text fill="#000000" font-family="sans-serif" font-size="14" lengthAdjust="spacing" textLength="312" x="256" y="65.5332">+executeCommand(cmd: String, userRole: String)</text></g><!--class RealServer--><g id="elem_RealServer"><rect codeLine="9" fill="#F1F1F1" height="65.6094" id="RealServer" rx="2.5" ry="2.5" style="stroke:#181818;stroke-width:0.5;" width="324" x="250" y="314"/><ellipse cx="372.25" cy="330" fill="#ADD1B2" rx="11" ry="11" style="stroke:#181818;stroke-width:1.0;"/><path d="M375.0156,325.875 Q375.1719,325.6563 375.3594,325.5469 Q375.5469,325.4375 375.7656,325.4375 Q376.1406,325.4375 376.375,325.7031 Q376.6094,325.9531 376.6094,326.5625 L376.6094,328.0156 Q376.6094,328.625 376.375,328.8906 Q376.1406,329.1563 375.7656,329.1563 Q375.4219,329.1563 375.2188,328.9531 Q375.0156,328.7656 374.9063,328.25 Q374.8594,327.8906 374.6719,327.7031 Q374.3438,327.3281 373.7344,327.1094 Q373.125,326.8906 372.5,326.8906 Q371.7344,326.8906 371.0938,327.2188 Q370.4688,327.5469 369.9688,328.2969 Q369.4844,329.0469 369.4844,330.0781 L369.4844,331.1719 Q369.4844,332.4063 370.375,333.2344 Q371.2656,334.0469 372.8594,334.0469 Q373.7969,334.0469 374.4531,333.7969 Q374.8438,333.6406 375.2656,333.2031 Q375.5313,332.9375 375.6719,332.8594 Q375.8281,332.7813 376.0313,332.7813 Q376.3594,332.7813 376.6094,333.0469 Q376.875,333.2969 376.875,333.6406 Q376.875,333.9844 376.5313,334.3906 Q376.0313,334.9688 375.2344,335.2969 Q374.1563,335.75 372.8594,335.75 Q371.3438,335.75 370.1406,335.125 Q369.1563,334.625 368.4688,333.5625 Q367.7813,332.4844 367.7813,331.2031 L367.7813,330.0469 Q367.7813,328.7188 368.3906,327.5781 Q369.0156,326.4219 370.1094,325.8125 Q371.2031,325.1875 372.4375,325.1875 Q373.1719,325.1875 373.8125,325.3594 Q374.4688,325.5156 375.0156,325.875 Z " fill="#000000"/><text fill="#000000" font-family="sans-serif" font-size="14" lengthAdjust="spacing" textLength="71" x="392.75" y="335.7285">RealServer</text><line style="stroke:#181818;stroke-width:0.5;" x1="251" x2="573" y1="346" y2="346"/><line style="stroke:#181818;stroke-width:0.5;" x1="251" x2="573" y1="354" y2="354"/><text fill="#000000" font-family="sans-serif" font-size="14" lengthAdjust="spacing" textLength="312" x="256" y="372.5332">+executeCommand(cmd: String, userRole: String)</text></g><!--class ProxyServer--><g id="elem_ProxyServer"><rect codeLine="14" fill="#F1F1F1" height="100.8281" id="ProxyServer" rx="2.5" ry="2.5" style="stroke:#181818;stroke-width:0.5;" width="324" x="7" y="134.5"/><ellipse cx="126.25" cy="150.5" fill="#ADD1B2" rx="11" ry="11" style="stroke:#181818;stroke-width:1.0;"/><path d="M129.0156,146.375 Q129.1719,146.1563 129.3594,146.0469 Q129.5469,145.9375 129.7656,145.9375 Q130.1406,145.9375 130.375,146.2031 Q130.6094,146.4531 130.6094,147.0625 L130.6094,148.5156 Q130.6094,149.125 130.375,149.3906 Q130.1406,149.6563 129.7656,149.6563 Q129.4219,149.6563 129.2188,149.4531 Q129.0156,149.2656 128.9063,148.75 Q128.8594,148.3906 128.6719,148.2031 Q128.3438,147.8281 127.7344,147.6094 Q127.125,147.3906 126.5,147.3906 Q125.7344,147.3906 125.0938,147.7188 Q124.4688,148.0469 123.9688,148.7969 Q123.4844,149.5469 123.4844,150.5781 L123.4844,151.6719 Q123.4844,152.9063 124.375,153.7344 Q125.2656,154.5469 126.8594,154.5469 Q127.7969,154.5469 128.4531,154.2969 Q128.8438,154.1406 129.2656,153.7031 Q129.5313,153.4375 129.6719,153.3594 Q129.8281,153.2813 130.0313,153.2813 Q130.3594,153.2813 130.6094,153.5469 Q130.875,153.7969 130.875,154.1406 Q130.875,154.4844 130.5313,154.8906 Q130.0313,155.4688 129.2344,155.7969 Q128.1563,156.25 126.8594,156.25 Q125.3438,156.25 124.1406,155.625 Q123.1563,155.125 122.4688,154.0625 Q121.7813,152.9844 121.7813,151.7031 L121.7813,150.5469 Q121.7813,149.2188 122.3906,148.0781 Q123.0156,146.9219 124.1094,146.3125 Q125.2031,145.6875 126.4375,145.6875 Q127.1719,145.6875 127.8125,145.8594 Q128.4688,146.0156 129.0156,146.375 Z " fill="#000000"/><text fill="#000000" font-family="sans-serif" font-size="14" lengthAdjust="spacing" textLength="77" x="146.75" y="156.2285">ProxyServer</text><line style="stroke:#181818;stroke-width:0.5;" x1="8" x2="330" y1="166.5" y2="166.5"/><text fill="#000000" font-family="sans-serif" font-size="14" lengthAdjust="spacing" textLength="154" x="13" y="185.0332">-realServer : RealServer</text><line style="stroke:#181818;stroke-width:0.5;" x1="8" x2="330" y1="192.1094" y2="192.1094"/><text fill="#000000" font-family="sans-serif" font-size="14" lengthAdjust="spacing" textLength="312" x="13" y="210.6426">+executeCommand(cmd: String, userRole: String)</text><text fill="#000000" font-family="sans-serif" font-size="14" lengthAdjust="spacing" textLength="262" x="13" y="228.252">-checkAccess(userRole: String) : boolean</text></g><path d="M366,134 L366,175.8789 L325,204.9141 L366,183.8789 L366,225.7578 A0,0 0 0 0 366,225.7578 L602,225.7578 A0,0 0 0 0 602,225.7578 L602,144 L592,134 L366,134 A0,0 0 0 0 366,134 " fill="#FEFFDD" style="stroke:#181818;stroke-width:0.5;"/><path d="M592,134 L592,144 L602,144 L592,134 " fill="#FEFFDD" style="stroke:#181818;stroke-width:0.5;"/><text fill="#000000" font-family="sans-serif" font-size="13" lengthAdjust="spacing" textLength="164" x="372" y="152.4951">if (checkAccess(userRole)) {</text><text fill="#000000" font-family="sans-serif" font-size="13" lengthAdjust="spacing" textLength="199" x="388" y="168.8467">realServer.executeCommand(cmd)</text><text fill="#000000" font-family="sans-serif" font-size="13" lengthAdjust="spacing" textLength="40" x="372" y="185.1982">} else {</text><text fill="#000000" font-family="sans-serif" font-size="13" lengthAdjust="spacing" textLength="131" x="388" y="201.5498">print("Access Denied")</text><text fill="#000000" font-family="sans-serif" font-size="13" lengthAdjust="spacing" textLength="4" x="372" y="217.9014">}</text><!--reverse link IServer to RealServer--><g id="link_IServer_RealServer"><path d="M559.9528,80.4988 C590.0328,94.2388 602.03,106.28 620,134 C644.66,172.04 643.39,197.17 620,236 C598.18,272.22 560.01,297.13 522.27,313.96 " fill="none" id="IServer-backto-RealServer" style="stroke:#181818;stroke-width:1.0;stroke-dasharray:7.0,7.0;"/><polygon fill="none" points="543.58,73.02,557.4598,85.9564,562.4457,75.0412,543.58,73.02" style="stroke:#181818;stroke-width:1.0;"/></g><!--reverse link IServer to ProxyServer--><g id="link_IServer_ProxyServer"><path d="M341.9575,82.2203 C311.3075,100.2603 287.91,114.02 253.41,134.32 " fill="none" id="IServer-backto-ProxyServer" style="stroke:#181818;stroke-width:1.0;stroke-dasharray:7.0,7.0;"/><polygon fill="none" points="357.47,73.09,338.9141,77.0495,345.001,87.3912,357.47,73.09" style="stroke:#181818;stroke-width:1.0;"/></g><!--link ProxyServer to RealServer--><g id="link_ProxyServer_RealServer"><path codeLine="21" d="M254.243,242.1284 C292.993,267.6384 324.0992,288.1197 358.1692,310.5597 " fill="none" id="ProxyServer-RealServer" style="stroke:#181818;stroke-width:1.0;"/><polygon fill="none" points="244.22,235.53,247.0321,242.1702,254.243,242.1284,251.431,235.4882,244.22,235.53" style="stroke:#181818;stroke-width:1.0;"/><polygon fill="#181818" points="363.18,313.86,357.864,305.569,359.0044,311.1097,353.4636,312.25,363.18,313.86" style="stroke:#181818;stroke-width:1.0;"/><text fill="#000000" font-family="sans-serif" font-size="13" lengthAdjust="spacing" textLength="107" x="313" y="280.4951">controls access to</text></g><!--SRC=[hP5VIyCm5CNVyoakUx55D_pprWTXA4ZVPFKBPEdP6fSc9RaTKzbtDsstMPaWY7aADuTpVkScRBHjf9SrAID3c3DxlMmPkNAsqE-WQo4kw6P6BnMeQ9UlK4ovPVYLL13wUAEyWD_2quUWU2u9EwZey-3gMjeoKNMPKH7DxVgAsW2_S0R7IIhsNShjaBA0DAUef9i4sA1PRq6kdwQYX-sLXrXTDmOrB8V_8BaRI9wzsxqD24-IiG4Q-6Du__XR-fJy5sCs0luJs-2eAgZDN2c4a9nfOiZInO6qGvC5Z6JjRAXq4yIOsKsdz-CDPXI_dBqpWMHlJko4i8v1Ngyh9hSQTywox-mHJgye-GakJG_ReD4sPkVLku9xWWauwPjOYfF9O4YFi1hbfDS9s98wkay0]--></g></svg>