<?xml version="1.0" encoding="us-ascii" standalone="no"?><svg xmlns="http://www.w3.org/2000/svg" xmlns:xlink="http://www.w3.org/1999/xlink" contentStyleType="text/css" height="385px" preserveAspectRatio="none" style="width:694px;height:385px;background:#FFFFFF;" version="1.1" viewBox="0 0 694 385" width="694px" zoomAndPan="magnify"><defs/><g><!--class IJsonAnalytics--><g id="elem_IJsonAnalytics"><rect codeLine="4" fill="#F1F1F1" height="65.6094" id="IJsonAnalytics" rx="2.5" ry="2.5" style="stroke:#181818;stroke-width:0.5;" width="247" x="165" y="7"/><ellipse cx="239.25" cy="23" fill="#B4A7E5" rx="11" ry="11" style="stroke:#181818;stroke-width:1.0;"/><path d="M240.2031,19.6406 L240.2031,26.2969 L241.9219,26.2969 Q242.5313,26.2969 242.7969,26.5313 Q243.0625,26.7656 243.0625,27.1563 Q243.0625,27.5313 242.7969,27.7656 Q242.5313,28 241.9219,28 L236.7813,28 Q236.1719,28 235.9063,27.7656 Q235.6406,27.5313 235.6406,27.1406 Q235.6406,26.7656 235.9063,26.5313 Q236.1719,26.2969 236.7813,26.2969 L238.5,26.2969 L238.5,19.6406 L236.7813,19.6406 Q236.1719,19.6406 235.9063,19.4063 Q235.6406,19.1719 235.6406,18.7813 Q235.6406,18.4063 235.9063,18.1719 Q236.1719,17.9375 236.7813,17.9375 L241.9219,17.9375 Q242.5313,17.9375 242.7969,18.1719 Q243.0625,18.4063 243.0625,18.7813 Q243.0625,19.1719 242.7969,19.4063 Q242.5313,19.6406 241.9219,19.6406 L240.2031,19.6406 Z " fill="#000000"/><text fill="#000000" font-family="sans-serif" font-size="14" font-style="italic" lengthAdjust="spacing" textLength="90" x="259.75" y="28.7285">IJsonAnalytics</text><line style="stroke:#181818;stroke-width:0.5;" x1="166" x2="411" y1="39" y2="39"/><line style="stroke:#181818;stroke-width:0.5;" x1="166" x2="411" y1="47" y2="47"/><text fill="#000000" font-family="sans-serif" font-size="14" lengthAdjust="spacing" textLength="235" x="171" y="65.5332">+analyzeData(jsonData: String) : void</text></g><!--class LegacyStockLib--><g id="elem_LegacyStockLib"><rect codeLine="9" fill="#F1F1F1" height="65.6094" id="LegacyStockLib" rx="2.5" ry="2.5" style="stroke:#181818;stroke-width:0.5;" width="191" x="193" y="313"/><ellipse cx="234.55" cy="329" fill="#ADD1B2" rx="11" ry="11" style="stroke:#181818;stroke-width:1.0;"/><path d="M237.3156,324.875 Q237.4719,324.6563 237.6594,324.5469 Q237.8469,324.4375 238.0656,324.4375 Q238.4406,324.4375 238.675,324.7031 Q238.9094,324.9531 238.9094,325.5625 L238.9094,327.0156 Q238.9094,327.625 238.675,327.8906 Q238.4406,328.1563 238.0656,328.1563 Q237.7219,328.1563 237.5188,327.9531 Q237.3156,327.7656 237.2063,327.25 Q237.1594,326.8906 236.9719,326.7031 Q236.6438,326.3281 236.0344,326.1094 Q235.425,325.8906 234.8,325.8906 Q234.0344,325.8906 233.3938,326.2188 Q232.7688,326.5469 232.2688,327.2969 Q231.7844,328.0469 231.7844,329.0781 L231.7844,330.1719 Q231.7844,331.4063 232.675,332.2344 Q233.5656,333.0469 235.1594,333.0469 Q236.0969,333.0469 236.7531,332.7969 Q237.1438,332.6406 237.5656,332.2031 Q237.8313,331.9375 237.9719,331.8594 Q238.1281,331.7813 238.3313,331.7813 Q238.6594,331.7813 238.9094,332.0469 Q239.175,332.2969 239.175,332.6406 Q239.175,332.9844 238.8313,333.3906 Q238.3313,333.9688 237.5344,334.2969 Q236.4563,334.75 235.1594,334.75 Q233.6438,334.75 232.4406,334.125 Q231.4563,333.625 230.7688,332.5625 Q230.0813,331.4844 230.0813,330.2031 L230.0813,329.0469 Q230.0813,327.7188 230.6906,326.5781 Q231.3156,325.4219 232.4094,324.8125 Q233.5031,324.1875 234.7375,324.1875 Q235.4719,324.1875 236.1125,324.3594 Q236.7688,324.5156 237.3156,324.875 Z " fill="#000000"/><text fill="#000000" font-family="sans-serif" font-size="14" lengthAdjust="spacing" textLength="100" x="254.45" y="334.7285">LegacyStockLib</text><line style="stroke:#181818;stroke-width:0.5;" x1="194" x2="383" y1="345" y2="345"/><line style="stroke:#181818;stroke-width:0.5;" x1="194" x2="383" y1="353" y2="353"/><text fill="#000000" font-family="sans-serif" font-size="14" lengthAdjust="spacing" textLength="179" x="199" y="371.5332">+getStockDataXML() : String</text></g><!--class XmlAdapter--><g id="elem_XmlAdapter"><rect codeLine="14" fill="#F1F1F1" height="100.8281" id="XmlAdapter" rx="2.5" ry="2.5" style="stroke:#181818;stroke-width:0.5;" width="247" x="165" y="134"/><ellipse cx="248.25" cy="150" fill="#ADD1B2" rx="11" ry="11" style="stroke:#181818;stroke-width:1.0;"/><path d="M251.0156,145.875 Q251.1719,145.6563 251.3594,145.5469 Q251.5469,145.4375 251.7656,145.4375 Q252.1406,145.4375 252.375,145.7031 Q252.6094,145.9531 252.6094,146.5625 L252.6094,148.0156 Q252.6094,148.625 252.375,148.8906 Q252.1406,149.1563 251.7656,149.1563 Q251.4219,149.1563 251.2188,148.9531 Q251.0156,148.7656 250.9063,148.25 Q250.8594,147.8906 250.6719,147.7031 Q250.3438,147.3281 249.7344,147.1094 Q249.125,146.8906 248.5,146.8906 Q247.7344,146.8906 247.0938,147.2188 Q246.4688,147.5469 245.9688,148.2969 Q245.4844,149.0469 245.4844,150.0781 L245.4844,151.1719 Q245.4844,152.4063 246.375,153.2344 Q247.2656,154.0469 248.8594,154.0469 Q249.7969,154.0469 250.4531,153.7969 Q250.8438,153.6406 251.2656,153.2031 Q251.5313,152.9375 251.6719,152.8594 Q251.8281,152.7813 252.0313,152.7813 Q252.3594,152.7813 252.6094,153.0469 Q252.875,153.2969 252.875,153.6406 Q252.875,153.9844 252.5313,154.3906 Q252.0313,154.9688 251.2344,155.2969 Q250.1563,155.75 248.8594,155.75 Q247.3438,155.75 246.1406,155.125 Q245.1563,154.625 244.4688,153.5625 Q243.7813,152.4844 243.7813,151.2031 L243.7813,150.0469 Q243.7813,148.7188 244.3906,147.5781 Q245.0156,146.4219 246.1094,145.8125 Q247.2031,145.1875 248.4375,145.1875 Q249.1719,145.1875 249.8125,145.3594 Q250.4688,145.5156 251.0156,145.875 Z " fill="#000000"/><text fill="#000000" font-family="sans-serif" font-size="14" lengthAdjust="spacing" textLength="72" x="268.75" y="155.7285">XmlAdapter</text><line style="stroke:#181818;stroke-width:0.5;" x1="166" x2="411" y1="166" y2="166"/><text fill="#000000" font-family="sans-serif" font-size="14" lengthAdjust="spacing" textLength="177" x="171" y="184.5332">-legacyLib : LegacyStockLib</text><line style="stroke:#181818;stroke-width:0.5;" x1="166" x2="411" y1="191.6094" y2="191.6094"/><text fill="#000000" font-family="sans-serif" font-size="14" lengthAdjust="spacing" textLength="216" x="171" y="210.1426">+XmlAdapter(lib : LegacyStockLib)</text><text fill="#000000" font-family="sans-serif" font-size="14" lengthAdjust="spacing" textLength="235" x="171" y="227.752">+analyzeData(jsonData: String) : void</text></g><!--class ClientApp--><g id="elem_ClientApp"><rect codeLine="21" fill="#F1F1F1" height="65.6094" id="ClientApp" rx="2.5" ry="2.5" style="stroke:#181818;stroke-width:0.5;" width="93" x="7" y="7"/><ellipse cx="22" cy="23" fill="#ADD1B2" rx="11" ry="11" style="stroke:#181818;stroke-width:1.0;"/><path d="M24.7656,18.875 Q24.9219,18.6563 25.1094,18.5469 Q25.2969,18.4375 25.5156,18.4375 Q25.8906,18.4375 26.125,18.7031 Q26.3594,18.9531 26.3594,19.5625 L26.3594,21.0156 Q26.3594,21.625 26.125,21.8906 Q25.8906,22.1563 25.5156,22.1563 Q25.1719,22.1563 24.9688,21.9531 Q24.7656,21.7656 24.6563,21.25 Q24.6094,20.8906 24.4219,20.7031 Q24.0938,20.3281 23.4844,20.1094 Q22.875,19.8906 22.25,19.8906 Q21.4844,19.8906 20.8438,20.2188 Q20.2188,20.5469 19.7188,21.2969 Q19.2344,22.0469 19.2344,23.0781 L19.2344,24.1719 Q19.2344,25.4063 20.125,26.2344 Q21.0156,27.0469 22.6094,27.0469 Q23.5469,27.0469 24.2031,26.7969 Q24.5938,26.6406 25.0156,26.2031 Q25.2813,25.9375 25.4219,25.8594 Q25.5781,25.7813 25.7813,25.7813 Q26.1094,25.7813 26.3594,26.0469 Q26.625,26.2969 26.625,26.6406 Q26.625,26.9844 26.2813,27.3906 Q25.7813,27.9688 24.9844,28.2969 Q23.9063,28.75 22.6094,28.75 Q21.0938,28.75 19.8906,28.125 Q18.9063,27.625 18.2188,26.5625 Q17.5313,25.4844 17.5313,24.2031 L17.5313,23.0469 Q17.5313,21.7188 18.1406,20.5781 Q18.7656,19.4219 19.8594,18.8125 Q20.9531,18.1875 22.1875,18.1875 Q22.9219,18.1875 23.5625,18.3594 Q24.2188,18.5156 24.7656,18.875 Z " fill="#000000"/><text fill="#000000" font-family="sans-serif" font-size="14" lengthAdjust="spacing" textLength="61" x="36" y="28.7285">ClientApp</text><line style="stroke:#181818;stroke-width:0.5;" x1="8" x2="99" y1="39" y2="39"/><line style="stroke:#181818;stroke-width:0.5;" x1="8" x2="99" y1="47" y2="47"/><text fill="#000000" font-family="sans-serif" font-size="14" lengthAdjust="spacing" textLength="48" x="13" y="65.5332">+main()</text></g><path d="M447.5,150 L447.5,175.5273 L406,222.0234 L447.5,183.5273 L447.5,209.0547 A0,0 0 0 0 447.5,209.0547 L687.5,209.0547 A0,0 0 0 0 687.5,209.0547 L687.5,160 L677.5,150 L447.5,150 A0,0 0 0 0 447.5,150 " fill="#FEFFDD" style="stroke:#181818;stroke-width:0.5;"/><path d="M677.5,150 L677.5,160 L687.5,160 L677.5,150 " fill="#FEFFDD" style="stroke:#181818;stroke-width:0.5;"/><text fill="#000000" font-family="sans-serif" font-size="13" lengthAdjust="spacing" textLength="219" x="453.5" y="168.4951">1. Calls legacyLib.getStockDataXML()</text><text fill="#000000" font-family="sans-serif" font-size="13" lengthAdjust="spacing" textLength="148" x="453.5" y="184.8467">2. Converts XML -&gt; JSON</text><text fill="#000000" font-family="sans-serif" font-size="13" lengthAdjust="spacing" textLength="98" x="453.5" y="201.1982">3. Returns JSON</text><!--reverse link IJsonAnalytics to XmlAdapter--><g id="link_IJsonAnalytics_XmlAdapter"><path d="M288.5,91.34 C288.5,109.24 288.5,113.87 288.5,133.95 " fill="none" id="IJsonAnalytics-backto-XmlAdapter" style="stroke:#181818;stroke-width:1.0;stroke-dasharray:7.0,7.0;"/><polygon fill="none" points="288.5,73.34,282.5,91.34,294.5,91.34,288.5,73.34" style="stroke:#181818;stroke-width:1.0;"/></g><!--link ClientApp to IJsonAnalytics--><g id="link_ClientApp_IJsonAnalytics"><path codeLine="26" d="M100.21,40 C119.08,40 135.84,40 158.91,40 " fill="none" id="ClientApp-to-IJsonAnalytics" style="stroke:#181818;stroke-width:1.0;stroke-dasharray:7.0,7.0;"/><polygon fill="#181818" points="164.91,40,155.91,36,159.91,40,155.91,44,164.91,40" style="stroke:#181818;stroke-width:1.0;"/><text fill="#000000" font-family="sans-serif" font-size="13" lengthAdjust="spacing" textLength="28" x="118.5" y="33.4951">uses</text></g><!--reverse link XmlAdapter to LegacyStockLib--><g id="link_XmlAdapter_LegacyStockLib"><path codeLine="27" d="M288.5,247.09 C288.5,272.33 288.5,290.3 288.5,312.56 " fill="none" id="XmlAdapter-backto-LegacyStockLib" style="stroke:#181818;stroke-width:1.0;"/><polygon fill="none" points="288.5,235.09,284.5,241.09,288.5,247.09,292.5,241.09,288.5,235.09" style="stroke:#181818;stroke-width:1.0;"/><text fill="#000000" font-family="sans-serif" font-size="13" lengthAdjust="spacing" textLength="72" x="289.5" y="279.4951">Composition</text><text fill="#000000" font-family="sans-serif" font-size="13" lengthAdjust="spacing" textLength="73" x="210.5953" y="256.4933">Delegates to</text></g><!--SRC=[bPBBRi8m44Nt_efHDqrKWVfQPO54mmP4MmcGojOaGt1nRCiUKA7gltTCU8coQLRsUE9pxns7fJ9EUbb3eMK8NIAlPYl2Vc7DM6qHxeMuXOSsJ1O84-ah9EWRGZ-N1KBoiP04n4TTvm2_71OKKg6E3Vr1iAPhfDwGAW9y2-3l3cIiRB4dIIQVt14N6OoPRQeKCbXRLOgVI7vioDrIEa86neqoXQsT93NJ24EiPB61FAfFnSx4lZOcMoo7QdQailPTBTAchyCaaXfcmtewPtb8NhmgApxT6QoaErm_hVMXHzLEOus6mdMhBT0xBL56Tg5hh-fqMwAlTAN_ZkoviP5hnRhsafjD7D8XZ5egawJD7oFKdAOrOQ5S4AVUTkVILGQhW46S9M1RhSkyCxZfOVHD683i3IGvpyi65Hcf4COIWbVLWi3Ep_ndsPb9biclBfTQXrE6xJyZv3P-8harQ_Gy1Av1gmE3yViRd_10HqWhRq9JGLD2X8jV]--></g></svg>