<?xml version="1.0" encoding="us-ascii" standalone="no"?><svg xmlns="http://www.w3.org/2000/svg" xmlns:xlink="http://www.w3.org/1999/xlink" contentStyleType="text/css" height="379px" preserveAspectRatio="none" style="width:619px;height:379px;background:#FFFFFF;" version="1.1" viewBox="0 0 619 379" width="619px" zoomAndPan="magnify"><defs/><g><!--class Color--><g id="elem_Color"><rect codeLine="4" fill="#F1F1F1" height="65.6094" id="Color" rx="2.5" ry="2.5" style="stroke:#181818;stroke-width:0.5;" width="92" x="402.5" y="24.5"/><ellipse cx="429.2" cy="40.5" fill="#B4A7E5" rx="11" ry="11" style="stroke:#181818;stroke-width:1.0;"/><path d="M430.1531,37.1406 L430.1531,43.7969 L431.8719,43.7969 Q432.4813,43.7969 432.7469,44.0313 Q433.0125,44.2656 433.0125,44.6563 Q433.0125,45.0313 432.7469,45.2656 Q432.4813,45.5 431.8719,45.5 L426.7313,45.5 Q426.1219,45.5 425.8563,45.2656 Q425.5906,45.0313 425.5906,44.6406 Q425.5906,44.2656 425.8563,44.0313 Q426.1219,43.7969 426.7313,43.7969 L428.45,43.7969 L428.45,37.1406 L426.7313,37.1406 Q426.1219,37.1406 425.8563,36.9063 Q425.5906,36.6719 425.5906,36.2813 Q425.5906,35.9063 425.8563,35.6719 Q426.1219,35.4375 426.7313,35.4375 L431.8719,35.4375 Q432.4813,35.4375 432.7469,35.6719 Q433.0125,35.9063 433.0125,36.2813 Q433.0125,36.6719 432.7469,36.9063 Q432.4813,37.1406 431.8719,37.1406 L430.1531,37.1406 Z " fill="#000000"/><text fill="#000000" font-family="sans-serif" font-size="14" font-style="italic" lengthAdjust="spacing" textLength="34" x="445.8" y="46.2285">Color</text><line style="stroke:#181818;stroke-width:0.5;" x1="403.5" x2="493.5" y1="56.5" y2="56.5"/><line style="stroke:#181818;stroke-width:0.5;" x1="403.5" x2="493.5" y1="64.5" y2="64.5"/><text fill="#000000" font-family="sans-serif" font-size="14" lengthAdjust="spacing" textLength="80" x="408.5" y="83.0332">+fill() : String</text></g><!--class Red--><g id="elem_Red"><rect codeLine="9" fill="#F1F1F1" height="65.6094" id="Red" rx="2.5" ry="2.5" style="stroke:#181818;stroke-width:0.5;" width="92" x="393.5" y="177.5"/><ellipse cx="423.8" cy="193.5" fill="#ADD1B2" rx="11" ry="11" style="stroke:#181818;stroke-width:1.0;"/><path d="M426.5656,189.375 Q426.7219,189.1563 426.9094,189.0469 Q427.0969,188.9375 427.3156,188.9375 Q427.6906,188.9375 427.925,189.2031 Q428.1594,189.4531 428.1594,190.0625 L428.1594,191.5156 Q428.1594,192.125 427.925,192.3906 Q427.6906,192.6563 427.3156,192.6563 Q426.9719,192.6563 426.7688,192.4531 Q426.5656,192.2656 426.4563,191.75 Q426.4094,191.3906 426.2219,191.2031 Q425.8938,190.8281 425.2844,190.6094 Q424.675,190.3906 424.05,190.3906 Q423.2844,190.3906 422.6438,190.7188 Q422.0188,191.0469 421.5188,191.7969 Q421.0344,192.5469 421.0344,193.5781 L421.0344,194.6719 Q421.0344,195.9063 421.925,196.7344 Q422.8156,197.5469 424.4094,197.5469 Q425.3469,197.5469 426.0031,197.2969 Q426.3938,197.1406 426.8156,196.7031 Q427.0813,196.4375 427.2219,196.3594 Q427.3781,196.2813 427.5813,196.2813 Q427.9094,196.2813 428.1594,196.5469 Q428.425,196.7969 428.425,197.1406 Q428.425,197.4844 428.0813,197.8906 Q427.5813,198.4688 426.7844,198.7969 Q425.7063,199.25 424.4094,199.25 Q422.8938,199.25 421.6906,198.625 Q420.7063,198.125 420.0188,197.0625 Q419.3313,195.9844 419.3313,194.7031 L419.3313,193.5469 Q419.3313,192.2188 419.9406,191.0781 Q420.5656,189.9219 421.6594,189.3125 Q422.7531,188.6875 423.9875,188.6875 Q424.7219,188.6875 425.3625,188.8594 Q426.0188,189.0156 426.5656,189.375 Z " fill="#000000"/><text fill="#000000" font-family="sans-serif" font-size="14" lengthAdjust="spacing" textLength="26" x="441.2" y="199.2285">Red</text><line style="stroke:#181818;stroke-width:0.5;" x1="394.5" x2="484.5" y1="209.5" y2="209.5"/><line style="stroke:#181818;stroke-width:0.5;" x1="394.5" x2="484.5" y1="217.5" y2="217.5"/><text fill="#000000" font-family="sans-serif" font-size="14" lengthAdjust="spacing" textLength="80" x="399.5" y="236.0332">+fill() : String</text></g><!--class Blue--><g id="elem_Blue"><rect codeLine="13" fill="#F1F1F1" height="65.6094" id="Blue" rx="2.5" ry="2.5" style="stroke:#181818;stroke-width:0.5;" width="92" x="520.5" y="177.5"/><ellipse cx="549.9" cy="193.5" fill="#ADD1B2" rx="11" ry="11" style="stroke:#181818;stroke-width:1.0;"/><path d="M552.6656,189.375 Q552.8219,189.1563 553.0094,189.0469 Q553.1969,188.9375 553.4156,188.9375 Q553.7906,188.9375 554.025,189.2031 Q554.2594,189.4531 554.2594,190.0625 L554.2594,191.5156 Q554.2594,192.125 554.025,192.3906 Q553.7906,192.6563 553.4156,192.6563 Q553.0719,192.6563 552.8688,192.4531 Q552.6656,192.2656 552.5563,191.75 Q552.5094,191.3906 552.3219,191.2031 Q551.9938,190.8281 551.3844,190.6094 Q550.775,190.3906 550.15,190.3906 Q549.3844,190.3906 548.7438,190.7188 Q548.1188,191.0469 547.6188,191.7969 Q547.1344,192.5469 547.1344,193.5781 L547.1344,194.6719 Q547.1344,195.9063 548.025,196.7344 Q548.9156,197.5469 550.5094,197.5469 Q551.4469,197.5469 552.1031,197.2969 Q552.4938,197.1406 552.9156,196.7031 Q553.1813,196.4375 553.3219,196.3594 Q553.4781,196.2813 553.6813,196.2813 Q554.0094,196.2813 554.2594,196.5469 Q554.525,196.7969 554.525,197.1406 Q554.525,197.4844 554.1813,197.8906 Q553.6813,198.4688 552.8844,198.7969 Q551.8063,199.25 550.5094,199.25 Q548.9938,199.25 547.7906,198.625 Q546.8063,198.125 546.1188,197.0625 Q545.4313,195.9844 545.4313,194.7031 L545.4313,193.5469 Q545.4313,192.2188 546.0406,191.0781 Q546.6656,189.9219 547.7594,189.3125 Q548.8531,188.6875 550.0875,188.6875 Q550.8219,188.6875 551.4625,188.8594 Q552.1188,189.0156 552.6656,189.375 Z " fill="#000000"/><text fill="#000000" font-family="sans-serif" font-size="14" lengthAdjust="spacing" textLength="28" x="567.1" y="199.2285">Blue</text><line style="stroke:#181818;stroke-width:0.5;" x1="521.5" x2="611.5" y1="209.5" y2="209.5"/><line style="stroke:#181818;stroke-width:0.5;" x1="521.5" x2="611.5" y1="217.5" y2="217.5"/><text fill="#000000" font-family="sans-serif" font-size="14" lengthAdjust="spacing" textLength="80" x="526.5" y="236.0332">+fill() : String</text></g><!--class Shape--><g id="elem_Shape"><rect codeLine="18" fill="#F1F1F1" height="100.8281" id="Shape" rx="2.5" ry="2.5" style="stroke:#181818;stroke-width:0.5;" width="124" x="207.5" y="7"/><ellipse cx="245.45" cy="23" fill="#A9DCDF" rx="11" ry="11" style="stroke:#181818;stroke-width:1.0;"/><path d="M247.6375,24.7656 L243.4969,24.7656 L243.075,25.7969 L243.4969,25.7969 Q244.1063,25.7969 244.3719,26.0313 Q244.6375,26.2656 244.6375,26.6563 Q244.6375,27.0313 244.3719,27.2656 Q244.1063,27.5 243.4969,27.5 L241.2,27.5 Q240.5906,27.5 240.3406,27.2656 Q240.075,27.0313 240.075,26.6406 Q240.075,26.2656 240.3563,26.0313 Q240.6219,25.7813 241.2469,25.7969 L243.9188,19.1406 L242.8094,19.1406 Q242.2,19.1406 241.9344,18.9063 Q241.6688,18.6719 241.6688,18.2813 Q241.6688,17.9063 241.9344,17.6719 Q242.2,17.4375 242.8094,17.4375 L246.4813,17.4375 L249.8719,25.7969 Q250.4656,25.7969 250.6531,25.9375 Q251.0438,26.2031 251.0438,26.6563 Q251.0438,27.0313 250.7781,27.2656 Q250.5281,27.5 249.9188,27.5 L247.6219,27.5 Q247.0125,27.5 246.7469,27.2656 Q246.4813,27.0313 246.4813,26.6406 Q246.4813,26.2656 246.7469,26.0313 Q247.0125,25.7969 247.6219,25.7969 L248.0438,25.7969 L247.6375,24.7656 Z M246.9188,23.0625 L245.5594,19.6875 L244.1844,23.0625 L246.9188,23.0625 Z " fill="#000000"/><text fill="#000000" font-family="sans-serif" font-size="14" font-style="italic" lengthAdjust="spacing" textLength="41" x="264.55" y="28.7285">Shape</text><line style="stroke:#181818;stroke-width:0.5;" x1="208.5" x2="330.5" y1="39" y2="39"/><text fill="#000000" font-family="sans-serif" font-size="14" lengthAdjust="spacing" textLength="82" x="213.5" y="57.5332">-color : Color</text><line style="stroke:#181818;stroke-width:0.5;" x1="208.5" x2="330.5" y1="64.6094" y2="64.6094"/><text fill="#000000" font-family="sans-serif" font-size="14" lengthAdjust="spacing" textLength="112" x="213.5" y="83.1426">+Shape(c : Color)</text><text fill="#000000" font-family="sans-serif" font-size="14" font-style="italic" lengthAdjust="spacing" textLength="48" x="213.5" y="100.752">+draw()</text></g><!--class Circle--><g id="elem_Circle"><rect codeLine="25" fill="#F1F1F1" height="83.2188" id="Circle" rx="2.5" ry="2.5" style="stroke:#181818;stroke-width:0.5;" width="119" x="67" y="169"/><ellipse cx="104.95" cy="185" fill="#ADD1B2" rx="11" ry="11" style="stroke:#181818;stroke-width:1.0;"/><path d="M107.7156,180.875 Q107.8719,180.6563 108.0594,180.5469 Q108.2469,180.4375 108.4656,180.4375 Q108.8406,180.4375 109.075,180.7031 Q109.3094,180.9531 109.3094,181.5625 L109.3094,183.0156 Q109.3094,183.625 109.075,183.8906 Q108.8406,184.1563 108.4656,184.1563 Q108.1219,184.1563 107.9188,183.9531 Q107.7156,183.7656 107.6063,183.25 Q107.5594,182.8906 107.3719,182.7031 Q107.0438,182.3281 106.4344,182.1094 Q105.825,181.8906 105.2,181.8906 Q104.4344,181.8906 103.7938,182.2188 Q103.1688,182.5469 102.6688,183.2969 Q102.1844,184.0469 102.1844,185.0781 L102.1844,186.1719 Q102.1844,187.4063 103.075,188.2344 Q103.9656,189.0469 105.5594,189.0469 Q106.4969,189.0469 107.1531,188.7969 Q107.5438,188.6406 107.9656,188.2031 Q108.2313,187.9375 108.3719,187.8594 Q108.5281,187.7813 108.7313,187.7813 Q109.0594,187.7813 109.3094,188.0469 Q109.575,188.2969 109.575,188.6406 Q109.575,188.9844 109.2313,189.3906 Q108.7313,189.9688 107.9344,190.2969 Q106.8563,190.75 105.5594,190.75 Q104.0438,190.75 102.8406,190.125 Q101.8563,189.625 101.1688,188.5625 Q100.4813,187.4844 100.4813,186.2031 L100.4813,185.0469 Q100.4813,183.7188 101.0906,182.5781 Q101.7156,181.4219 102.8094,180.8125 Q103.9031,180.1875 105.1375,180.1875 Q105.8719,180.1875 106.5125,180.3594 Q107.1688,180.5156 107.7156,180.875 Z " fill="#000000"/><text fill="#000000" font-family="sans-serif" font-size="14" lengthAdjust="spacing" textLength="36" x="124.05" y="190.7285">Circle</text><line style="stroke:#181818;stroke-width:0.5;" x1="68" x2="185" y1="201" y2="201"/><line style="stroke:#181818;stroke-width:0.5;" x1="68" x2="185" y1="209" y2="209"/><text fill="#000000" font-family="sans-serif" font-size="14" lengthAdjust="spacing" textLength="107" x="73" y="227.5332">+Circle(c : Color)</text><text fill="#000000" font-family="sans-serif" font-size="14" lengthAdjust="spacing" textLength="48" x="73" y="245.1426">+draw()</text></g><!--class Square--><g id="elem_Square"><rect codeLine="30" fill="#F1F1F1" height="83.2188" id="Square" rx="2.5" ry="2.5" style="stroke:#181818;stroke-width:0.5;" width="129" x="221" y="169"/><ellipse cx="258.95" cy="185" fill="#ADD1B2" rx="11" ry="11" style="stroke:#181818;stroke-width:1.0;"/><path d="M261.7156,180.875 Q261.8719,180.6563 262.0594,180.5469 Q262.2469,180.4375 262.4656,180.4375 Q262.8406,180.4375 263.075,180.7031 Q263.3094,180.9531 263.3094,181.5625 L263.3094,183.0156 Q263.3094,183.625 263.075,183.8906 Q262.8406,184.1563 262.4656,184.1563 Q262.1219,184.1563 261.9188,183.9531 Q261.7156,183.7656 261.6063,183.25 Q261.5594,182.8906 261.3719,182.7031 Q261.0438,182.3281 260.4344,182.1094 Q259.825,181.8906 259.2,181.8906 Q258.4344,181.8906 257.7938,182.2188 Q257.1688,182.5469 256.6688,183.2969 Q256.1844,184.0469 256.1844,185.0781 L256.1844,186.1719 Q256.1844,187.4063 257.075,188.2344 Q257.9656,189.0469 259.5594,189.0469 Q260.4969,189.0469 261.1531,188.7969 Q261.5438,188.6406 261.9656,188.2031 Q262.2313,187.9375 262.3719,187.8594 Q262.5281,187.7813 262.7313,187.7813 Q263.0594,187.7813 263.3094,188.0469 Q263.575,188.2969 263.575,188.6406 Q263.575,188.9844 263.2313,189.3906 Q262.7313,189.9688 261.9344,190.2969 Q260.8563,190.75 259.5594,190.75 Q258.0438,190.75 256.8406,190.125 Q255.8563,189.625 255.1688,188.5625 Q254.4813,187.4844 254.4813,186.2031 L254.4813,185.0469 Q254.4813,183.7188 255.0906,182.5781 Q255.7156,181.4219 256.8094,180.8125 Q257.9031,180.1875 259.1375,180.1875 Q259.8719,180.1875 260.5125,180.3594 Q261.1688,180.5156 261.7156,180.875 Z " fill="#000000"/><text fill="#000000" font-family="sans-serif" font-size="14" lengthAdjust="spacing" textLength="46" x="278.05" y="190.7285">Square</text><line style="stroke:#181818;stroke-width:0.5;" x1="222" x2="349" y1="201" y2="201"/><line style="stroke:#181818;stroke-width:0.5;" x1="222" x2="349" y1="209" y2="209"/><text fill="#000000" font-family="sans-serif" font-size="14" lengthAdjust="spacing" textLength="117" x="227" y="227.5332">+Square(c : Color)</text><text fill="#000000" font-family="sans-serif" font-size="14" lengthAdjust="spacing" textLength="48" x="227" y="245.1426">+draw()</text></g><g id="elem_GMN13"><path d="M6,313 L6,372.0547 A0,0 0 0 0 6,372.0547 L247,372.0547 A0,0 0 0 0 247,372.0547 L247,323 L237,313 L130.5,313 L126.5,252.28 L122.5,313 L6,313 A0,0 0 0 0 6,313 " fill="#FEFFDD" style="stroke:#181818;stroke-width:0.5;"/><path d="M237,313 L237,323 L247,323 L237,313 " fill="#FEFFDD" style="stroke:#181818;stroke-width:0.5;"/><text fill="#000000" font-family="sans-serif" font-size="13" lengthAdjust="spacing" textLength="43" x="12" y="331.4951">draw() {</text><text fill="#000000" font-family="sans-serif" font-size="13" lengthAdjust="spacing" textLength="212" x="20" y="347.8467">print("Drawing Circle in " + color.fill())</text><text fill="#000000" font-family="sans-serif" font-size="13" lengthAdjust="spacing" textLength="4" x="12" y="364.1982">}</text></g><!--reverse link Color to Red--><g id="link_Color_Red"><path d="M445.5206,108.4882 C444.0006,134.0282 442.95,151.67 441.42,177.26 " fill="none" id="Color-backto-Red" style="stroke:#181818;stroke-width:1.0;stroke-dasharray:7.0,7.0;"/><polygon fill="none" points="446.59,90.52,439.5312,108.1318,451.51,108.8447,446.59,90.52" style="stroke:#181818;stroke-width:1.0;"/></g><!--reverse link Color to Blue--><g id="link_Color_Blue"><path d="M484.604,104.7026 C504.564,130.2426 521.31,151.67 541.31,177.26 " fill="none" id="Color-backto-Blue" style="stroke:#181818;stroke-width:1.0;stroke-dasharray:7.0,7.0;"/><polygon fill="none" points="473.52,90.52,479.8764,108.3972,489.3315,101.0079,473.52,90.52" style="stroke:#181818;stroke-width:1.0;"/></g><!--reverse link Shape to Circle--><g id="link_Shape_Circle"><path d="M209.9037,121.4301 C191.3537,141.0201 182.71,150.15 165.09,168.75 " fill="none" id="Shape-backto-Circle" style="stroke:#181818;stroke-width:1.0;"/><polygon fill="none" points="222.28,108.36,205.547,117.3047,214.2605,125.5555,222.28,108.36" style="stroke:#181818;stroke-width:1.0;"/></g><!--reverse link Shape to Square--><g id="link_Shape_Square"><path d="M276.6805,126.2594 C278.7605,145.8494 279.21,150.15 281.18,168.75 " fill="none" id="Shape-backto-Square" style="stroke:#181818;stroke-width:1.0;"/><polygon fill="none" points="274.78,108.36,270.714,126.8929,282.647,125.6259,274.78,108.36" style="stroke:#181818;stroke-width:1.0;"/></g><!--reverse link Shape to Color--><g id="link_Shape_Color"><path codeLine="36" d="M343.6,57.5 C366.83,57.5 380.78,57.5 402.31,57.5 " fill="none" id="Shape-backto-Color" style="stroke:#181818;stroke-width:1.0;"/><polygon fill="none" points="331.6,57.5,337.6,61.5,343.6,57.5,337.6,53.5,331.6,57.5" style="stroke:#181818;stroke-width:1.0;"/><text fill="#000000" font-family="sans-serif" font-size="13" lengthAdjust="spacing" textLength="34" x="350" y="50.9951">Has a</text></g><!--SRC=[bP7BReCm44Nt_eeH6q0HgAzLTacwADlI7t3CGAmQczg3MZNYtskmKLzggtfbpNZElNFj7gKUkEKz2CMTsn5PUHm9As5qBLyHBXXBuRA4XnD2rGyAUzJ4IHeDbIQqBHV8v7g3Wr76mfc1FnjefL9P3bkeFLPtR9fXLwL_fOL5-afqR341zzY0N3lkRsQOsgiH_pMMmdNOQtTqPBcOBJ0Uxo4Fg4zym0WfG2p8RK17yF8Y4sirZ-Np2fgWiVmvouFYJUctQwNs6tvGNHS_I2iK0huGwkQp-2OslokzuwFbfv7Rdo2X-HiaNIBPMzbqoCAmAQpiJbJ4IBUGt747F65C6_-9HqDaUZ1jjEYH0HTL1nyuPScjh_daroMbXiGBBv6MuNTcCnFphc7clW40]--></g></svg>