<?xml version="1.0" encoding="us-ascii" standalone="no"?><svg xmlns="http://www.w3.org/2000/svg" xmlns:xlink="http://www.w3.org/1999/xlink" contentStyleType="text/css" height="424px" preserveAspectRatio="none" style="width:213px;height:424px;background:#FFFFFF;" version="1.1" viewBox="0 0 213 424" width="213px" zoomAndPan="magnify"><defs/><g><text fill="#000000" font-family="sans-serif" font-size="14" font-weight="bold" lengthAdjust="spacing" textLength="178" x="10.5" y="24.5332">Builder Pattern (Desktop)</text><!--class Client--><g id="elem_Client"><rect codeLine="7" fill="#F1F1F1" height="48" id="Client" rx="2.5" ry="2.5" style="stroke:#181818;stroke-width:0.5;" width="68" x="37" y="45.6094"/><ellipse cx="52" cy="61.6094" fill="#ADD1B2" rx="11" ry="11" style="stroke:#181818;stroke-width:1.0;"/><path d="M54.7656,57.4844 Q54.9219,57.2656 55.1094,57.1563 Q55.2969,57.0469 55.5156,57.0469 Q55.8906,57.0469 56.125,57.3125 Q56.3594,57.5625 56.3594,58.1719 L56.3594,59.625 Q56.3594,60.2344 56.125,60.5 Q55.8906,60.7656 55.5156,60.7656 Q55.1719,60.7656 54.9688,60.5625 Q54.7656,60.375 54.6563,59.8594 Q54.6094,59.5 54.4219,59.3125 Q54.0938,58.9375 53.4844,58.7188 Q52.875,58.5 52.25,58.5 Q51.4844,58.5 50.8438,58.8281 Q50.2188,59.1563 49.7188,59.9063 Q49.2344,60.6563 49.2344,61.6875 L49.2344,62.7813 Q49.2344,64.0156 50.125,64.8438 Q51.0156,65.6563 52.6094,65.6563 Q53.5469,65.6563 54.2031,65.4063 Q54.5938,65.25 55.0156,64.8125 Q55.2813,64.5469 55.4219,64.4688 Q55.5781,64.3906 55.7813,64.3906 Q56.1094,64.3906 56.3594,64.6563 Q56.625,64.9063 56.625,65.25 Q56.625,65.5938 56.2813,66 Q55.7813,66.5781 54.9844,66.9063 Q53.9063,67.3594 52.6094,67.3594 Q51.0938,67.3594 49.8906,66.7344 Q48.9063,66.2344 48.2188,65.1719 Q47.5313,64.0938 47.5313,62.8125 L47.5313,61.6563 Q47.5313,60.3281 48.1406,59.1875 Q48.7656,58.0313 49.8594,57.4219 Q50.9531,56.7969 52.1875,56.7969 Q52.9219,56.7969 53.5625,56.9688 Q54.2188,57.125 54.7656,57.4844 Z " fill="#000000"/><text fill="#000000" font-family="sans-serif" font-size="14" lengthAdjust="spacing" textLength="36" x="66" y="67.3379">Client</text><line style="stroke:#181818;stroke-width:0.5;" x1="38" x2="104" y1="77.6094" y2="77.6094"/><line style="stroke:#181818;stroke-width:0.5;" x1="38" x2="104" y1="85.6094" y2="85.6094"/></g><!--class Desktop--><g id="elem_Desktop"><rect codeLine="8" fill="#F1F1F1" height="48" id="Desktop" rx="2.5" ry="2.5" style="stroke:#181818;stroke-width:0.5;" width="84" x="29" y="369.6094"/><ellipse cx="44" cy="385.6094" fill="#ADD1B2" rx="11" ry="11" style="stroke:#181818;stroke-width:1.0;"/><path d="M46.7656,381.4844 Q46.9219,381.2656 47.1094,381.1563 Q47.2969,381.0469 47.5156,381.0469 Q47.8906,381.0469 48.125,381.3125 Q48.3594,381.5625 48.3594,382.1719 L48.3594,383.625 Q48.3594,384.2344 48.125,384.5 Q47.8906,384.7656 47.5156,384.7656 Q47.1719,384.7656 46.9688,384.5625 Q46.7656,384.375 46.6563,383.8594 Q46.6094,383.5 46.4219,383.3125 Q46.0938,382.9375 45.4844,382.7188 Q44.875,382.5 44.25,382.5 Q43.4844,382.5 42.8438,382.8281 Q42.2188,383.1563 41.7188,383.9063 Q41.2344,384.6563 41.2344,385.6875 L41.2344,386.7813 Q41.2344,388.0156 42.125,388.8438 Q43.0156,389.6563 44.6094,389.6563 Q45.5469,389.6563 46.2031,389.4063 Q46.5938,389.25 47.0156,388.8125 Q47.2813,388.5469 47.4219,388.4688 Q47.5781,388.3906 47.7813,388.3906 Q48.1094,388.3906 48.3594,388.6563 Q48.625,388.9063 48.625,389.25 Q48.625,389.5938 48.2813,390 Q47.7813,390.5781 46.9844,390.9063 Q45.9063,391.3594 44.6094,391.3594 Q43.0938,391.3594 41.8906,390.7344 Q40.9063,390.2344 40.2188,389.1719 Q39.5313,388.0938 39.5313,386.8125 L39.5313,385.6563 Q39.5313,384.3281 40.1406,383.1875 Q40.7656,382.0313 41.8594,381.4219 Q42.9531,380.7969 44.1875,380.7969 Q44.9219,380.7969 45.5625,380.9688 Q46.2188,381.125 46.7656,381.4844 Z " fill="#000000"/><text fill="#000000" font-family="sans-serif" font-size="14" lengthAdjust="spacing" textLength="52" x="58" y="391.3379">Desktop</text><line style="stroke:#181818;stroke-width:0.5;" x1="30" x2="112" y1="401.6094" y2="401.6094"/><line style="stroke:#181818;stroke-width:0.5;" x1="30" x2="112" y1="409.6094" y2="409.6094"/></g><!--class DesktopBuilder--><g id="elem_DesktopBuilder"><rect codeLine="9" fill="#F1F1F1" height="48" id="DesktopBuilder" rx="2.5" ry="2.5" style="stroke:#181818;stroke-width:0.5;" width="128" x="7" y="261.6094"/><ellipse cx="22" cy="277.6094" fill="#ADD1B2" rx="11" ry="11" style="stroke:#181818;stroke-width:1.0;"/><path d="M24.7656,273.4844 Q24.9219,273.2656 25.1094,273.1563 Q25.2969,273.0469 25.5156,273.0469 Q25.8906,273.0469 26.125,273.3125 Q26.3594,273.5625 26.3594,274.1719 L26.3594,275.625 Q26.3594,276.2344 26.125,276.5 Q25.8906,276.7656 25.5156,276.7656 Q25.1719,276.7656 24.9688,276.5625 Q24.7656,276.375 24.6563,275.8594 Q24.6094,275.5 24.4219,275.3125 Q24.0938,274.9375 23.4844,274.7188 Q22.875,274.5 22.25,274.5 Q21.4844,274.5 20.8438,274.8281 Q20.2188,275.1563 19.7188,275.9063 Q19.2344,276.6563 19.2344,277.6875 L19.2344,278.7813 Q19.2344,280.0156 20.125,280.8438 Q21.0156,281.6563 22.6094,281.6563 Q23.5469,281.6563 24.2031,281.4063 Q24.5938,281.25 25.0156,280.8125 Q25.2813,280.5469 25.4219,280.4688 Q25.5781,280.3906 25.7813,280.3906 Q26.1094,280.3906 26.3594,280.6563 Q26.625,280.9063 26.625,281.25 Q26.625,281.5938 26.2813,282 Q25.7813,282.5781 24.9844,282.9063 Q23.9063,283.3594 22.6094,283.3594 Q21.0938,283.3594 19.8906,282.7344 Q18.9063,282.2344 18.2188,281.1719 Q17.5313,280.0938 17.5313,278.8125 L17.5313,277.6563 Q17.5313,276.3281 18.1406,275.1875 Q18.7656,274.0313 19.8594,273.4219 Q20.9531,272.7969 22.1875,272.7969 Q22.9219,272.7969 23.5625,272.9688 Q24.2188,273.125 24.7656,273.4844 Z " fill="#000000"/><text fill="#000000" font-family="sans-serif" font-size="14" lengthAdjust="spacing" textLength="96" x="36" y="283.3379">DesktopBuilder</text><line style="stroke:#181818;stroke-width:0.5;" x1="8" x2="134" y1="293.6094" y2="293.6094"/><line style="stroke:#181818;stroke-width:0.5;" x1="8" x2="134" y1="301.6094" y2="301.6094"/></g><!--class ComputerDirector--><g id="elem_ComputerDirector"><rect codeLine="10" fill="#F1F1F1" height="48" id="ComputerDirector" rx="2.5" ry="2.5" style="stroke:#181818;stroke-width:0.5;" width="144" x="62" y="153.6094"/><ellipse cx="77" cy="169.6094" fill="#ADD1B2" rx="11" ry="11" style="stroke:#181818;stroke-width:1.0;"/><path d="M79.7656,165.4844 Q79.9219,165.2656 80.1094,165.1563 Q80.2969,165.0469 80.5156,165.0469 Q80.8906,165.0469 81.125,165.3125 Q81.3594,165.5625 81.3594,166.1719 L81.3594,167.625 Q81.3594,168.2344 81.125,168.5 Q80.8906,168.7656 80.5156,168.7656 Q80.1719,168.7656 79.9688,168.5625 Q79.7656,168.375 79.6563,167.8594 Q79.6094,167.5 79.4219,167.3125 Q79.0938,166.9375 78.4844,166.7188 Q77.875,166.5 77.25,166.5 Q76.4844,166.5 75.8438,166.8281 Q75.2188,167.1563 74.7188,167.9063 Q74.2344,168.6563 74.2344,169.6875 L74.2344,170.7813 Q74.2344,172.0156 75.125,172.8438 Q76.0156,173.6563 77.6094,173.6563 Q78.5469,173.6563 79.2031,173.4063 Q79.5938,173.25 80.0156,172.8125 Q80.2813,172.5469 80.4219,172.4688 Q80.5781,172.3906 80.7813,172.3906 Q81.1094,172.3906 81.3594,172.6563 Q81.625,172.9063 81.625,173.25 Q81.625,173.5938 81.2813,174 Q80.7813,174.5781 79.9844,174.9063 Q78.9063,175.3594 77.6094,175.3594 Q76.0938,175.3594 74.8906,174.7344 Q73.9063,174.2344 73.2188,173.1719 Q72.5313,172.0938 72.5313,170.8125 L72.5313,169.6563 Q72.5313,168.3281 73.1406,167.1875 Q73.7656,166.0313 74.8594,165.4219 Q75.9531,164.7969 77.1875,164.7969 Q77.9219,164.7969 78.5625,164.9688 Q79.2188,165.125 79.7656,165.4844 Z " fill="#000000"/><text fill="#000000" font-family="sans-serif" font-size="14" lengthAdjust="spacing" textLength="112" x="91" y="175.3379">ComputerDirector</text><line style="stroke:#181818;stroke-width:0.5;" x1="63" x2="205" y1="185.6094" y2="185.6094"/><line style="stroke:#181818;stroke-width:0.5;" x1="63" x2="205" y1="193.6094" y2="193.6094"/></g><!--link Client to DesktopBuilder--><g id="link_Client_DesktopBuilder"><path codeLine="12" d="M49.5,93.9694 C49.5,135.5594 49.5,213.8094 49.5,255.3394 " fill="none" id="Client-to-DesktopBuilder" style="stroke:#181818;stroke-width:1.0;"/><polygon fill="#181818" points="49.5,261.3394,53.5,252.3394,49.5,256.3394,45.5,252.3394,49.5,261.3394" style="stroke:#181818;stroke-width:1.0;"/></g><!--link DesktopBuilder to Desktop--><g id="link_DesktopBuilder_Desktop"><path codeLine="13" d="M71,309.8494 C71,327.6294 71,345.6894 71,363.4494 " fill="none" id="DesktopBuilder-to-Desktop" style="stroke:#181818;stroke-width:1.0;"/><polygon fill="#181818" points="71,369.4494,75,360.4494,71,364.4494,67,360.4494,71,369.4494" style="stroke:#181818;stroke-width:1.0;"/><text fill="#000000" font-family="sans-serif" font-size="13" lengthAdjust="spacing" textLength="34" x="36" y="336.1445">builds</text></g><!--link Client to ComputerDirector--><g id="link_Client_ComputerDirector"><path codeLine="14" d="M83.5,93.8494 C83.5,111.6294 83.5,129.6894 83.5,147.4494 " fill="none" id="Client-to-ComputerDirector" style="stroke:#181818;stroke-width:1.0;"/><polygon fill="#181818" points="83.5,153.4494,87.5,144.4494,83.5,148.4494,79.5,144.4494,83.5,153.4494" style="stroke:#181818;stroke-width:1.0;"/><text fill="#000000" font-family="sans-serif" font-size="13" lengthAdjust="spacing" textLength="34" x="48.5" y="120.1445">builds</text></g><!--link ComputerDirector to DesktopBuilder--><g id="link_ComputerDirector_DesktopBuilder"><path codeLine="15" d="M98.5,201.8494 C98.5,219.6294 98.5,237.6894 98.5,255.4494 " fill="none" id="ComputerDirector-to-DesktopBuilder" style="stroke:#181818;stroke-width:1.0;"/><polygon fill="#181818" points="98.5,261.4494,102.5,252.4494,98.5,256.4494,94.5,252.4494,98.5,261.4494" style="stroke:#181818;stroke-width:1.0;"/><text fill="#000000" font-family="sans-serif" font-size="13" lengthAdjust="spacing" textLength="59" x="38.5" y="228.1445">configures</text></g><!--SRC=[PO_13e9034Jl_OeUzK3YsOE9oiMRYL-mG866PPUq9KQ_NbGqAnwdysOcrOx3uCJrgAshufL3WxNpIg1VntCWkms4KQoDYL5wfxet4ov6erCPmuNlX1i0O_E4Xv5zHO9dPqOIS9MJTXQ7DS0hYaVF56mMi_chveeF7_jXMfASXKgB0l1km2pRBHE_CYLmYyNpgcbwMPr0I-T_R8AdvsjkHY651m00]--></g></svg>