<?xml version="1.0" encoding="us-ascii" standalone="no"?><svg xmlns="http://www.w3.org/2000/svg" xmlns:xlink="http://www.w3.org/1999/xlink" contentStyleType="text/css" height="473px" preserveAspectRatio="none" style="width:703px;height:473px;background:#FFFFFF;" version="1.1" viewBox="0 0 703 473" width="703px" zoomAndPan="magnify"><defs/><g><!--class Amplifier--><g id="elem_Amplifier"><rect codeLine="4" fill="#F1F1F1" height="83.2188" id="Amplifier" rx="2.5" ry="2.5" style="stroke:#181818;stroke-width:0.5;" width="111" x="7" y="383"/><ellipse cx="33.25" cy="399" fill="#ADD1B2" rx="11" ry="11" style="stroke:#181818;stroke-width:1.0;"/><path d="M36.0156,394.875 Q36.1719,394.6563 36.3594,394.5469 Q36.5469,394.4375 36.7656,394.4375 Q37.1406,394.4375 37.375,394.7031 Q37.6094,394.9531 37.6094,395.5625 L37.6094,397.0156 Q37.6094,397.625 37.375,397.8906 Q37.1406,398.1563 36.7656,398.1563 Q36.4219,398.1563 36.2188,397.9531 Q36.0156,397.7656 35.9063,397.25 Q35.8594,396.8906 35.6719,396.7031 Q35.3438,396.3281 34.7344,396.1094 Q34.125,395.8906 33.5,395.8906 Q32.7344,395.8906 32.0938,396.2188 Q31.4688,396.5469 30.9688,397.2969 Q30.4844,398.0469 30.4844,399.0781 L30.4844,400.1719 Q30.4844,401.4063 31.375,402.2344 Q32.2656,403.0469 33.8594,403.0469 Q34.7969,403.0469 35.4531,402.7969 Q35.8438,402.6406 36.2656,402.2031 Q36.5313,401.9375 36.6719,401.8594 Q36.8281,401.7813 37.0313,401.7813 Q37.3594,401.7813 37.6094,402.0469 Q37.875,402.2969 37.875,402.6406 Q37.875,402.9844 37.5313,403.3906 Q37.0313,403.9688 36.2344,404.2969 Q35.1563,404.75 33.8594,404.75 Q32.3438,404.75 31.1406,404.125 Q30.1563,403.625 29.4688,402.5625 Q28.7813,401.4844 28.7813,400.2031 L28.7813,399.0469 Q28.7813,397.7188 29.3906,396.5781 Q30.0156,395.4219 31.1094,394.8125 Q32.2031,394.1875 33.4375,394.1875 Q34.1719,394.1875 34.8125,394.3594 Q35.4688,394.5156 36.0156,394.875 Z " fill="#000000"/><text fill="#000000" font-family="sans-serif" font-size="14" lengthAdjust="spacing" textLength="54" x="49.75" y="404.7285">Amplifier</text><line style="stroke:#181818;stroke-width:0.5;" x1="8" x2="117" y1="415" y2="415"/><line style="stroke:#181818;stroke-width:0.5;" x1="8" x2="117" y1="423" y2="423"/><text fill="#000000" font-family="sans-serif" font-size="14" lengthAdjust="spacing" textLength="34" x="13" y="441.5332">+on()</text><text fill="#000000" font-family="sans-serif" font-size="14" lengthAdjust="spacing" textLength="99" x="13" y="459.1426">+setVolume(int)</text></g><!--class DvdPlayer--><g id="elem_DvdPlayer"><rect codeLine="9" fill="#F1F1F1" height="83.2188" id="DvdPlayer" rx="2.5" ry="2.5" style="stroke:#181818;stroke-width:0.5;" width="138" x="153.5" y="383"/><ellipse cx="186.95" cy="399" fill="#ADD1B2" rx="11" ry="11" style="stroke:#181818;stroke-width:1.0;"/><path d="M189.7156,394.875 Q189.8719,394.6563 190.0594,394.5469 Q190.2469,394.4375 190.4656,394.4375 Q190.8406,394.4375 191.075,394.7031 Q191.3094,394.9531 191.3094,395.5625 L191.3094,397.0156 Q191.3094,397.625 191.075,397.8906 Q190.8406,398.1563 190.4656,398.1563 Q190.1219,398.1563 189.9188,397.9531 Q189.7156,397.7656 189.6063,397.25 Q189.5594,396.8906 189.3719,396.7031 Q189.0438,396.3281 188.4344,396.1094 Q187.825,395.8906 187.2,395.8906 Q186.4344,395.8906 185.7938,396.2188 Q185.1688,396.5469 184.6688,397.2969 Q184.1844,398.0469 184.1844,399.0781 L184.1844,400.1719 Q184.1844,401.4063 185.075,402.2344 Q185.9656,403.0469 187.5594,403.0469 Q188.4969,403.0469 189.1531,402.7969 Q189.5438,402.6406 189.9656,402.2031 Q190.2313,401.9375 190.3719,401.8594 Q190.5281,401.7813 190.7313,401.7813 Q191.0594,401.7813 191.3094,402.0469 Q191.575,402.2969 191.575,402.6406 Q191.575,402.9844 191.2313,403.3906 Q190.7313,403.9688 189.9344,404.2969 Q188.8563,404.75 187.5594,404.75 Q186.0438,404.75 184.8406,404.125 Q183.8563,403.625 183.1688,402.5625 Q182.4813,401.4844 182.4813,400.2031 L182.4813,399.0469 Q182.4813,397.7188 183.0906,396.5781 Q183.7156,395.4219 184.8094,394.8125 Q185.9031,394.1875 187.1375,394.1875 Q187.8719,394.1875 188.5125,394.3594 Q189.1688,394.5156 189.7156,394.875 Z " fill="#000000"/><text fill="#000000" font-family="sans-serif" font-size="14" lengthAdjust="spacing" textLength="65" x="205.05" y="404.7285">DvdPlayer</text><line style="stroke:#181818;stroke-width:0.5;" x1="154.5" x2="290.5" y1="415" y2="415"/><line style="stroke:#181818;stroke-width:0.5;" x1="154.5" x2="290.5" y1="423" y2="423"/><text fill="#000000" font-family="sans-serif" font-size="14" lengthAdjust="spacing" textLength="34" x="159.5" y="441.5332">+on()</text><text fill="#000000" font-family="sans-serif" font-size="14" lengthAdjust="spacing" textLength="126" x="159.5" y="459.1426">+play(movie: String)</text></g><!--class Projector--><g id="elem_Projector"><rect codeLine="14" fill="#F1F1F1" height="83.2188" id="Projector" rx="2.5" ry="2.5" style="stroke:#181818;stroke-width:0.5;" width="168" x="326.5" y="383"/><ellipse cx="377.75" cy="399" fill="#ADD1B2" rx="11" ry="11" style="stroke:#181818;stroke-width:1.0;"/><path d="M380.5156,394.875 Q380.6719,394.6563 380.8594,394.5469 Q381.0469,394.4375 381.2656,394.4375 Q381.6406,394.4375 381.875,394.7031 Q382.1094,394.9531 382.1094,395.5625 L382.1094,397.0156 Q382.1094,397.625 381.875,397.8906 Q381.6406,398.1563 381.2656,398.1563 Q380.9219,398.1563 380.7188,397.9531 Q380.5156,397.7656 380.4063,397.25 Q380.3594,396.8906 380.1719,396.7031 Q379.8438,396.3281 379.2344,396.1094 Q378.625,395.8906 378,395.8906 Q377.2344,395.8906 376.5938,396.2188 Q375.9688,396.5469 375.4688,397.2969 Q374.9844,398.0469 374.9844,399.0781 L374.9844,400.1719 Q374.9844,401.4063 375.875,402.2344 Q376.7656,403.0469 378.3594,403.0469 Q379.2969,403.0469 379.9531,402.7969 Q380.3438,402.6406 380.7656,402.2031 Q381.0313,401.9375 381.1719,401.8594 Q381.3281,401.7813 381.5313,401.7813 Q381.8594,401.7813 382.1094,402.0469 Q382.375,402.2969 382.375,402.6406 Q382.375,402.9844 382.0313,403.3906 Q381.5313,403.9688 380.7344,404.2969 Q379.6563,404.75 378.3594,404.75 Q376.8438,404.75 375.6406,404.125 Q374.6563,403.625 373.9688,402.5625 Q373.2813,401.4844 373.2813,400.2031 L373.2813,399.0469 Q373.2813,397.7188 373.8906,396.5781 Q374.5156,395.4219 375.6094,394.8125 Q376.7031,394.1875 377.9375,394.1875 Q378.6719,394.1875 379.3125,394.3594 Q379.9688,394.5156 380.5156,394.875 Z " fill="#000000"/><text fill="#000000" font-family="sans-serif" font-size="14" lengthAdjust="spacing" textLength="57" x="398.25" y="404.7285">Projector</text><line style="stroke:#181818;stroke-width:0.5;" x1="327.5" x2="493.5" y1="415" y2="415"/><line style="stroke:#181818;stroke-width:0.5;" x1="327.5" x2="493.5" y1="423" y2="423"/><text fill="#000000" font-family="sans-serif" font-size="14" lengthAdjust="spacing" textLength="34" x="332.5" y="441.5332">+on()</text><text fill="#000000" font-family="sans-serif" font-size="14" lengthAdjust="spacing" textLength="156" x="332.5" y="459.1426">+setInput(source: String)</text></g><!--class Lights--><g id="elem_Lights"><rect codeLine="19" fill="#F1F1F1" height="65.6094" id="Lights" rx="2.5" ry="2.5" style="stroke:#181818;stroke-width:0.5;" width="123" x="530" y="391.5"/><ellipse cx="568.85" cy="407.5" fill="#ADD1B2" rx="11" ry="11" style="stroke:#181818;stroke-width:1.0;"/><path d="M571.6156,403.375 Q571.7719,403.1563 571.9594,403.0469 Q572.1469,402.9375 572.3656,402.9375 Q572.7406,402.9375 572.975,403.2031 Q573.2094,403.4531 573.2094,404.0625 L573.2094,405.5156 Q573.2094,406.125 572.975,406.3906 Q572.7406,406.6563 572.3656,406.6563 Q572.0219,406.6563 571.8188,406.4531 Q571.6156,406.2656 571.5063,405.75 Q571.4594,405.3906 571.2719,405.2031 Q570.9438,404.8281 570.3344,404.6094 Q569.725,404.3906 569.1,404.3906 Q568.3344,404.3906 567.6938,404.7188 Q567.0688,405.0469 566.5688,405.7969 Q566.0844,406.5469 566.0844,407.5781 L566.0844,408.6719 Q566.0844,409.9063 566.975,410.7344 Q567.8656,411.5469 569.4594,411.5469 Q570.3969,411.5469 571.0531,411.2969 Q571.4438,411.1406 571.8656,410.7031 Q572.1313,410.4375 572.2719,410.3594 Q572.4281,410.2813 572.6313,410.2813 Q572.9594,410.2813 573.2094,410.5469 Q573.475,410.7969 573.475,411.1406 Q573.475,411.4844 573.1313,411.8906 Q572.6313,412.4688 571.8344,412.7969 Q570.7563,413.25 569.4594,413.25 Q567.9438,413.25 566.7406,412.625 Q565.7563,412.125 565.0688,411.0625 Q564.3813,409.9844 564.3813,408.7031 L564.3813,407.5469 Q564.3813,406.2188 564.9906,405.0781 Q565.6156,403.9219 566.7094,403.3125 Q567.8031,402.6875 569.0375,402.6875 Q569.7719,402.6875 570.4125,402.8594 Q571.0688,403.0156 571.6156,403.375 Z " fill="#000000"/><text fill="#000000" font-family="sans-serif" font-size="14" lengthAdjust="spacing" textLength="38" x="588.15" y="413.2285">Lights</text><line style="stroke:#181818;stroke-width:0.5;" x1="531" x2="652" y1="423.5" y2="423.5"/><line style="stroke:#181818;stroke-width:0.5;" x1="531" x2="652" y1="431.5" y2="431.5"/><text fill="#000000" font-family="sans-serif" font-size="14" lengthAdjust="spacing" textLength="111" x="536" y="450.0332">+dim(percent: int)</text></g><!--class HomeTheaterFacade--><g id="elem_HomeTheaterFacade"><rect codeLine="24" fill="#F1F1F1" height="171.2656" id="HomeTheaterFacade" rx="2.5" ry="2.5" style="stroke:#181818;stroke-width:0.5;" width="295" x="169" y="151"/><ellipse cx="245.25" cy="167" fill="#ADD1B2" rx="11" ry="11" style="stroke:#181818;stroke-width:1.0;"/><path d="M248.0156,162.875 Q248.1719,162.6563 248.3594,162.5469 Q248.5469,162.4375 248.7656,162.4375 Q249.1406,162.4375 249.375,162.7031 Q249.6094,162.9531 249.6094,163.5625 L249.6094,165.0156 Q249.6094,165.625 249.375,165.8906 Q249.1406,166.1563 248.7656,166.1563 Q248.4219,166.1563 248.2188,165.9531 Q248.0156,165.7656 247.9063,165.25 Q247.8594,164.8906 247.6719,164.7031 Q247.3438,164.3281 246.7344,164.1094 Q246.125,163.8906 245.5,163.8906 Q244.7344,163.8906 244.0938,164.2188 Q243.4688,164.5469 242.9688,165.2969 Q242.4844,166.0469 242.4844,167.0781 L242.4844,168.1719 Q242.4844,169.4063 243.375,170.2344 Q244.2656,171.0469 245.8594,171.0469 Q246.7969,171.0469 247.4531,170.7969 Q247.8438,170.6406 248.2656,170.2031 Q248.5313,169.9375 248.6719,169.8594 Q248.8281,169.7813 249.0313,169.7813 Q249.3594,169.7813 249.6094,170.0469 Q249.875,170.2969 249.875,170.6406 Q249.875,170.9844 249.5313,171.3906 Q249.0313,171.9688 248.2344,172.2969 Q247.1563,172.75 245.8594,172.75 Q244.3438,172.75 243.1406,172.125 Q242.1563,171.625 241.4688,170.5625 Q240.7813,169.4844 240.7813,168.2031 L240.7813,167.0469 Q240.7813,165.7188 241.3906,164.5781 Q242.0156,163.4219 243.1094,162.8125 Q244.2031,162.1875 245.4375,162.1875 Q246.1719,162.1875 246.8125,162.3594 Q247.4688,162.5156 248.0156,162.875 Z " fill="#000000"/><text fill="#000000" font-family="sans-serif" font-size="14" lengthAdjust="spacing" textLength="134" x="265.75" y="172.7285">HomeTheaterFacade</text><line style="stroke:#181818;stroke-width:0.5;" x1="170" x2="463" y1="183" y2="183"/><text fill="#000000" font-family="sans-serif" font-size="14" lengthAdjust="spacing" textLength="98" x="175" y="201.5332">-amp : Amplifier</text><text fill="#000000" font-family="sans-serif" font-size="14" lengthAdjust="spacing" textLength="105" x="175" y="219.1426">-dvd : DvdPlayer</text><text fill="#000000" font-family="sans-serif" font-size="14" lengthAdjust="spacing" textLength="130" x="175" y="236.752">-projector : Projector</text><text fill="#000000" font-family="sans-serif" font-size="14" lengthAdjust="spacing" textLength="88" x="175" y="254.3613">-lights : Lights</text><line style="stroke:#181818;stroke-width:0.5;" x1="170" x2="463" y1="261.4375" y2="261.4375"/><text fill="#000000" font-family="sans-serif" font-size="14" lengthAdjust="spacing" textLength="283" x="175" y="279.9707">+HomeTheaterFacade(amp, dvd, proj, lights)</text><text fill="#000000" font-family="sans-serif" font-size="14" lengthAdjust="spacing" textLength="173" x="175" y="297.5801">+watchMovie(movie: String)</text><text fill="#000000" font-family="sans-serif" font-size="14" lengthAdjust="spacing" textLength="79" x="175" y="315.1895">+endMovie()</text></g><!--class User--><g id="elem_User"><rect codeLine="36" fill="#F1F1F1" height="65.6094" id="User" rx="2.5" ry="2.5" style="stroke:#181818;stroke-width:0.5;" width="61" x="286" y="7"/><ellipse cx="301" cy="23" fill="#ADD1B2" rx="11" ry="11" style="stroke:#181818;stroke-width:1.0;"/><path d="M303.7656,18.875 Q303.9219,18.6563 304.1094,18.5469 Q304.2969,18.4375 304.5156,18.4375 Q304.8906,18.4375 305.125,18.7031 Q305.3594,18.9531 305.3594,19.5625 L305.3594,21.0156 Q305.3594,21.625 305.125,21.8906 Q304.8906,22.1563 304.5156,22.1563 Q304.1719,22.1563 303.9688,21.9531 Q303.7656,21.7656 303.6563,21.25 Q303.6094,20.8906 303.4219,20.7031 Q303.0938,20.3281 302.4844,20.1094 Q301.875,19.8906 301.25,19.8906 Q300.4844,19.8906 299.8438,20.2188 Q299.2188,20.5469 298.7188,21.2969 Q298.2344,22.0469 298.2344,23.0781 L298.2344,24.1719 Q298.2344,25.4063 299.125,26.2344 Q300.0156,27.0469 301.6094,27.0469 Q302.5469,27.0469 303.2031,26.7969 Q303.5938,26.6406 304.0156,26.2031 Q304.2813,25.9375 304.4219,25.8594 Q304.5781,25.7813 304.7813,25.7813 Q305.1094,25.7813 305.3594,26.0469 Q305.625,26.2969 305.625,26.6406 Q305.625,26.9844 305.2813,27.3906 Q304.7813,27.9688 303.9844,28.2969 Q302.9063,28.75 301.6094,28.75 Q300.0938,28.75 298.8906,28.125 Q297.9063,27.625 297.2188,26.5625 Q296.5313,25.4844 296.5313,24.2031 L296.5313,23.0469 Q296.5313,21.7188 297.1406,20.5781 Q297.7656,19.4219 298.8594,18.8125 Q299.9531,18.1875 301.1875,18.1875 Q301.9219,18.1875 302.5625,18.3594 Q303.2188,18.5156 303.7656,18.875 Z " fill="#000000"/><text fill="#000000" font-family="sans-serif" font-size="14" lengthAdjust="spacing" textLength="29" x="315" y="28.7285">User</text><line style="stroke:#181818;stroke-width:0.5;" x1="287" x2="346" y1="39" y2="39"/><line style="stroke:#181818;stroke-width:0.5;" x1="287" x2="346" y1="47" y2="47"/><text fill="#000000" font-family="sans-serif" font-size="14" lengthAdjust="spacing" textLength="48" x="292" y="65.5332">+main()</text></g><path d="M499,185.5 L499,227.3789 L348,291.8516 L499,235.3789 L499,277.2578 A0,0 0 0 0 499,277.2578 L696,277.2578 A0,0 0 0 0 696,277.2578 L696,195.5 L686,185.5 L499,185.5 A0,0 0 0 0 499,185.5 " fill="#FEFFDD" style="stroke:#181818;stroke-width:0.5;"/><path d="M686,185.5 L686,195.5 L696,195.5 L686,185.5 " fill="#FEFFDD" style="stroke:#181818;stroke-width:0.5;"/><text fill="#000000" font-family="sans-serif" font-size="13" lengthAdjust="spacing" textLength="176" x="505" y="203.9951">Orchestrates the subsystems:</text><text fill="#000000" font-family="sans-serif" font-size="13" lengthAdjust="spacing" textLength="93" x="505" y="220.3467">1. lights.dim(10)</text><text fill="#000000" font-family="sans-serif" font-size="13" lengthAdjust="spacing" textLength="91" x="505" y="236.6982">2. projector.on()</text><text fill="#000000" font-family="sans-serif" font-size="13" lengthAdjust="spacing" textLength="66" x="505" y="253.0498">3. amp.on()</text><text fill="#000000" font-family="sans-serif" font-size="13" lengthAdjust="spacing" textLength="103" x="505" y="269.4014">4. dvd.play(movie)</text><!--link User to HomeTheaterFacade--><g id="link_User_HomeTheaterFacade"><path codeLine="41" d="M316.5,73.12 C316.5,94.37 316.5,117.31 316.5,144.87 " fill="none" id="User-to-HomeTheaterFacade" style="stroke:#181818;stroke-width:1.0;stroke-dasharray:7.0,7.0;"/><polygon fill="#181818" points="316.5,150.87,320.5,141.87,316.5,145.87,312.5,141.87,316.5,150.87" style="stroke:#181818;stroke-width:1.0;"/><text fill="#000000" font-family="sans-serif" font-size="13" lengthAdjust="spacing" textLength="28" x="317.5" y="117.4951">uses</text></g><!--link HomeTheaterFacade to Amplifier--><g id="link_HomeTheaterFacade_Amplifier"><path codeLine="42" d="M201.02,322.06 C172.06,343.27 147.1305,361.5246 122.6505,379.4546 " fill="none" id="HomeTheaterFacade-to-Amplifier" style="stroke:#181818;stroke-width:1.0;"/><polygon fill="#181818" points="117.81,383,127.4343,380.909,121.8438,380.0455,122.7072,374.455,117.81,383" style="stroke:#181818;stroke-width:1.0;"/></g><!--link HomeTheaterFacade to DvdPlayer--><g id="link_HomeTheaterFacade_DvdPlayer"><path codeLine="43" d="M273.76,322.06 C263.09,343.18 254.836,359.5149 245.796,377.4049 " fill="none" id="HomeTheaterFacade-to-DvdPlayer" style="stroke:#181818;stroke-width:1.0;"/><polygon fill="#181818" points="243.09,382.76,250.7191,376.5313,245.345,378.2974,243.5789,372.9233,243.09,382.76" style="stroke:#181818;stroke-width:1.0;"/></g><!--link HomeTheaterFacade to Projector--><g id="link_HomeTheaterFacade_Projector"><path codeLine="44" d="M359.24,322.06 C369.91,343.18 378.164,359.5149 387.204,377.4049 " fill="none" id="HomeTheaterFacade-to-Projector" style="stroke:#181818;stroke-width:1.0;"/><polygon fill="#181818" points="389.91,382.76,389.4211,372.9233,387.655,378.2974,382.2809,376.5313,389.91,382.76" style="stroke:#181818;stroke-width:1.0;"/></g><!--link HomeTheaterFacade to Lights--><g id="link_HomeTheaterFacade_Lights"><path codeLine="45" d="M441.53,322.06 C477.99,346.73 510.6698,368.8288 539.1198,388.0688 " fill="none" id="HomeTheaterFacade-to-Lights" style="stroke:#181818;stroke-width:1.0;"/><polygon fill="#181818" points="544.09,391.43,538.8756,383.0748,539.9482,388.629,534.394,389.7017,544.09,391.43" style="stroke:#181818;stroke-width:1.0;"/></g><!--SRC=[TPF1Rjim38RlUWhUwc29q6uzwL2WI54im8O5IzkxQZErMaioH3fRD_JTAyLo73IkJpP_KkJ_YQONureTj8MoqKJNpC4yTeohqhkD-OTmBiGPRBf7UYL62ykKXGJ5NOsmzBPjy2-iTM2QYVq9S1rZPcimm7y1yVa2tXMp_4h83xxfB1R6yKoyYLnqiwlMZNwTBcgZKbY_CwXW4-TpJqULw-2ViMJ_MRkLQpiko7UXd2h_OPvgfaDjPMpHOanrh60OyGoIsLjTwWfxunkJZCFACOQjBd7m_jrRZBgEuPpU7xm0RLjG8viShNPLZ1xCvsXxiAH6Urbh-dbL7dmVpREVD2zYqtdgCTyVES_50vm_cilwPyBw4MwlewjwzGZ2iZ4HJNPxJqVtPRLnG-PlR3GRxwWsBObzcfHN4tGKT76PnAcmM5mTmPhMHspJ-eXkMiy4XVEC4D87-Etfa4gDeABNNw6iaJZ410AEI6ZuDqX5-K9coZAjqiLvWlbLZbSgytP-asabXgzBcQv9Zei-4v4-fCd4Em00]--></g></svg>